<svg width="24" height="24" viewBox="0 0 24 24" fill="none" xmlns="http://www.w3.org/2000/svg">
<rect width="24" height="24" rx="12" fill="#FF921C"/>
<path d="M12.0252 15.4439C11.9875 15.4062 11.9575 15.3614 11.9371 15.312C11.9166 15.2627 11.9061 15.2099 11.9061 15.1565C11.9061 15.1031 11.9166 15.0502 11.9371 15.0009C11.9575 14.9516 11.9875 14.9068 12.0252 14.8691L14.9883 11.9065L7.03142 11.9065C6.92367 11.9065 6.82034 11.8637 6.74416 11.7875C6.66797 11.7113 6.62517 11.608 6.62517 11.5002C6.62517 11.3925 6.66797 11.2892 6.74416 11.213C6.82034 11.1368 6.92367 11.094 7.03142 11.094L14.9883 11.094L12.0252 8.1314C11.949 8.05517 11.9062 7.95178 11.9062 7.84398C11.9062 7.73617 11.949 7.63278 12.0252 7.55655C12.1015 7.48033 12.2049 7.4375 12.3127 7.4375C12.4205 7.4375 12.5239 7.48033 12.6001 7.55655L16.2563 11.2128C16.2941 11.2505 16.3241 11.2953 16.3445 11.3447C16.365 11.394 16.3755 11.4468 16.3755 11.5002C16.3755 11.5536 16.365 11.6065 16.3445 11.6558C16.3241 11.7051 16.2941 11.7499 16.2563 11.7876L12.6001 15.4439C12.5624 15.4817 12.5176 15.5116 12.4682 15.5321C12.4189 15.5525 12.3661 15.563 12.3127 15.563C12.2593 15.563 12.2064 15.5525 12.1571 15.5321C12.1078 15.5116 12.063 15.4817 12.0252 15.4439Z" fill="white"/>
</svg>
