<svg width="100" height="100" viewBox="0 0 100 100" fill="none" xmlns="http://www.w3.org/2000/svg">
<path d="M76.1158 14.879C67.8578 6.64607 56.6726 2.02295 45.0117 2.02295C33.3508 2.02295 22.1657 6.64607 13.9076 14.879C13.3585 15.443 12.8389 16.0219 12.3343 16.6157L11.978 17.0164C11.729 17.3011 11.598 17.67 11.6118 18.0479C11.6256 18.4258 11.7831 18.7842 12.0522 19.0499L71.9448 78.9574C72.0835 79.0951 72.248 79.2038 72.4289 79.2777C72.6098 79.3515 72.8033 79.389 72.9987 79.3879C73.3596 79.3874 73.7078 79.2554 73.9783 79.0169L74.4089 78.6458C74.9878 78.141 75.5666 77.6363 76.1158 77.0872C80.2014 73.0029 83.4423 68.154 85.6533 62.817C87.8644 57.4801 89.0024 51.7599 89.0024 45.9831C89.0024 40.2063 87.8644 34.486 85.6533 29.1492C83.4423 23.8122 80.2014 18.9631 76.1158 14.879ZM65.3248 23.5474C58.096 30.8058 49.5908 39.311 44.9746 43.9272L50.4369 16.2743C55.9926 17.2262 61.1591 19.7503 65.3248 23.5474ZM65.3248 67.736L65.1021 67.9288L48.5964 51.4083L71.2473 60.3142C69.9414 62.6413 68.3233 64.7788 66.438 66.6672C66.0817 67.0827 65.7107 67.4094 65.3396 67.736H65.3248ZM72.5683 57.7167L47.0378 47.6085C51.5799 47.6085 58.4819 47.3263 65.7255 47.1335L75.0767 46.8663C74.9239 50.6077 74.073 54.2878 72.5683 57.7167ZM65.6662 44.1647C59.1796 44.3429 52.9751 44.521 48.4925 44.6101C53.2869 39.8008 60.8866 32.216 67.4324 25.6404C72.0014 30.6679 74.7005 37.1147 75.0767 43.8976L65.6662 44.1647ZM42.288 42.2202L33.0407 18.4711C36.9082 16.7058 41.1092 15.7897 45.3605 15.7844C46.073 15.7844 46.7707 15.7844 47.4832 15.8883L42.288 42.2202ZM30.3985 19.8219L38.9037 41.6711L23.066 25.8779L23.2441 25.6849C23.5707 25.299 23.9121 24.9131 24.2682 24.5569C26.0985 22.7203 28.1592 21.1286 30.3985 19.8219ZM74.0526 74.9794C73.7408 75.2911 73.4144 75.5879 73.1026 75.8701L67.2248 70.0367C67.6551 69.6656 68.0857 69.2945 68.4864 68.8788C70.9523 66.4151 73.0025 63.5677 74.5573 60.4479C74.6103 60.3792 74.6551 60.3044 74.6908 60.2253C74.6978 60.196 74.6978 60.1654 74.6908 60.1361C76.9237 55.5926 78.0719 50.5929 78.0455 45.5304C78.0525 45.4761 78.0525 45.4213 78.0455 45.367C78.0523 45.3029 78.0523 45.2383 78.0455 45.1742C77.958 37.3088 75.0344 29.7394 69.8121 23.8572C64.5899 17.9753 57.4201 14.1757 49.6205 13.1572H49.4721C48.1333 12.9805 46.7851 12.8863 45.4348 12.8752C41.1278 12.8678 36.8619 13.7126 32.8828 15.3608C28.9037 17.009 25.29 19.4281 22.2496 22.4788C21.8339 22.8944 21.4628 23.3249 21.0769 23.7553L15.1248 17.9367C15.4068 17.6102 15.7037 17.2836 16.0154 16.9868C23.7057 9.29054 34.1383 4.9645 45.0183 4.96032C55.8982 4.95615 66.3341 9.27416 74.0303 16.9645C81.7266 24.6547 86.0526 35.0874 86.0567 45.9674C86.061 56.8472 81.743 67.2833 74.0526 74.9794Z" fill="#FF921C" stroke="#FF921C" stroke-width="1.3"/>
<path d="M24.6987 42.3984C24.5725 42.1615 24.3844 41.9631 24.1543 41.8247C23.9243 41.6861 23.661 41.6125 23.3925 41.6118C23.1239 41.6125 22.8607 41.6861 22.6307 41.8247C22.4007 41.9631 22.2125 42.1615 22.0862 42.3984C21.7598 43.022 14.1006 57.5238 12.1116 64.6634C11.8108 65.6257 11.641 66.6243 11.6069 67.632C11.6069 70.7577 12.8486 73.7556 15.0588 75.9657C17.2691 78.1759 20.2668 79.4177 23.3925 79.4177C26.5182 79.4177 29.5159 78.1759 31.7262 75.9657C33.9364 73.7556 35.178 70.7577 35.178 67.632C35.1553 66.7429 35.0207 65.8602 34.7773 65.0049C32.9516 57.9543 25.0698 43.0368 24.6987 42.3984ZM23.3925 76.4193C21.0612 76.3961 18.8321 75.4597 17.1836 73.8113C15.5351 72.1627 14.5988 69.9336 14.5756 67.6024C14.6117 66.8568 14.7413 66.1188 14.9615 65.4056C16.4458 60.344 21.0769 50.8591 23.3925 46.332C25.7526 50.9334 30.5914 60.7002 31.8976 65.7174C32.0798 66.3302 32.1844 66.9634 32.2094 67.6024C32.1862 69.9336 31.2498 72.1627 29.6014 73.8113C27.9528 75.4597 25.7237 76.3961 23.3925 76.4193Z" fill="#FF921C" stroke="#FF921C" stroke-width="1.3"/>
<path d="M45.8504 70.8531C45.7231 70.6139 45.5325 70.4141 45.2997 70.2754C45.0668 70.1366 44.8004 70.0645 44.5293 70.0664C44.2593 70.0686 43.995 70.1443 43.7648 70.2856C43.5347 70.4268 43.3473 70.6282 43.2232 70.8679C43.0006 71.2836 37.7014 81.2582 36.3211 86.2307C36.105 86.944 35.9852 87.6827 35.9648 88.4275C36.0568 90.6393 37.0002 92.7298 38.5977 94.2622C40.1952 95.7947 42.3232 96.6502 44.5368 96.6502C46.7504 96.6502 48.8784 95.7947 50.4759 94.2622C52.0734 92.7298 53.0168 90.6393 53.1088 88.4275C53.0968 87.7739 52.997 87.1248 52.812 86.4979C51.5206 81.6145 46.0434 71.2984 45.8504 70.8531ZM44.4997 94.0382C43.7648 94.0382 43.0372 93.8936 42.3582 93.6123C41.6793 93.3311 41.0623 92.9189 40.5427 92.3993C40.0232 91.8797 39.6109 91.2629 39.3297 90.5839C39.0486 89.905 38.9038 89.1773 38.9038 88.4423C38.9263 87.9682 39.0111 87.4991 39.1561 87.0472C40.6306 82.8166 42.4218 78.7034 44.5145 74.742C46.6441 78.7377 48.4509 82.8972 49.9175 87.1807C50.0318 87.5668 50.0966 87.9657 50.1104 88.3682C50.1204 89.1106 49.9823 89.8473 49.7047 90.5359C49.4268 91.2243 49.0148 91.8507 48.4927 92.3784C47.9706 92.9061 47.3486 93.3247 46.6631 93.6097C45.9775 93.8947 45.2422 94.0404 44.4997 94.0382Z" fill="#FF921C" stroke="#FF921C" stroke-width="1.3"/>
</svg>
