<svg width="102" height="100" viewBox="0 0 102 100" fill="none" xmlns="http://www.w3.org/2000/svg">
<path d="M53.1017 91.6668H46.3287C28.7131 91.6668 19.9053 91.6668 14.4314 86.4377C8.95752 81.2043 8.95752 72.7877 8.95752 55.9543V33.3335H93.0416V43.7502" stroke="#FF921C" stroke-width="5" stroke-linecap="round" stroke-linejoin="round"/>
<path d="M76.2248 66.6668H76.2626M8.95752 33.3335L13.002 23.7168C16.1341 16.2585 17.7023 12.5335 20.8806 10.4335C24.059 8.3335 28.1287 8.3335 36.2848 8.3335H65.7143C73.8662 8.3335 77.9401 8.3335 81.1185 10.4335C84.2969 12.5335 85.865 16.2627 88.9972 23.7168L93.0416 33.3335M50.9996 33.3335V8.3335M42.5912 50.0002H50.9996M76.2248 50.0002C66.9335 50.0002 59.408 57.5377 59.408 66.8335C59.408 72.1502 61.5101 76.2835 65.7143 79.9793C68.6782 82.5793 72.2686 86.9043 74.4212 90.4085C75.4554 92.0877 76.9185 92.0877 78.0284 90.4085C80.2903 86.971 83.7713 82.5793 86.7353 79.9793C90.9395 76.2835 93.0416 72.1502 93.0416 66.8335C93.0416 57.5418 85.5161 50.0002 76.2248 50.0002Z" stroke="#FF921C" stroke-width="5" stroke-linecap="round" stroke-linejoin="round"/>
</svg>
