<svg width="36" height="36" viewBox="0 0 36 36" fill="none" xmlns="http://www.w3.org/2000/svg">
<rect width="36" height="36" rx="18" fill="white"/>
<path d="M24 12H12C11.1727 12 10.5 12.6727 10.5 13.5V22.5C10.5 23.3273 11.1727 24 12 24H24C24.8273 24 25.5 23.3273 25.5 22.5V13.5C25.5 12.6727 24.8273 12 24 12ZM24 13.5V13.8833L18 18.5505L12 13.884V13.5H24ZM12 22.5V15.783L17.5395 20.0917C17.6708 20.1949 17.833 20.251 18 20.251C18.167 20.251 18.3292 20.1949 18.4605 20.0917L24 15.783L24.0015 22.5H12Z" fill="#FF921C"/>
</svg>
