<svg width="100" height="100" viewBox="0 0 100 100" fill="none" xmlns="http://www.w3.org/2000/svg">
<path d="M46.8816 1.13395L47.732 0.566974C48.1927 0.283487 48.9014 0.0354359 49.2912 0C49.681 0 50.3897 0.318923 51.7717 1.382V15.202C51.7717 28.5259 51.7363 29.0574 51.063 29.7661C50.6378 30.2268 49.9291 30.5103 49.2912 30.5103C48.6888 30.5103 47.9446 30.2268 47.5903 29.8724C47.0233 29.3055 46.9524 28.2069 46.8816 1.13395Z" fill="#FF921C"/>
<path d="M64.5995 18.6393C68.1785 12.4025 71.4032 7.08717 71.7221 6.87456C72.041 6.62651 72.6434 6.41389 73.0332 6.41389C73.423 6.37845 74.0963 6.66194 74.5215 7.0163C74.9468 7.37066 75.372 7.97307 75.4783 8.36286C75.6555 8.85896 74.3444 11.4103 71.0488 17.2218C68.462 21.7222 65.6626 26.6478 64.7767 28.2069C63.8908 29.7661 62.8986 31.467 62.5088 32.034C62.1544 32.5656 61.5166 33.1325 61.0913 33.3097C60.6307 33.4515 59.8511 33.4515 59.3196 33.3097C58.6463 33.0971 58.2565 32.6719 58.0793 32.034C57.9376 31.467 57.8667 30.7938 57.9376 30.5103C58.0084 30.2268 60.985 24.876 64.5995 18.6393Z" fill="#FF921C"/>
<path d="M23.175 18.7101C23.1041 15.9461 23.2104 14.9539 23.6002 14.635C23.8837 14.387 24.4152 14.2098 24.8405 14.2098C25.2303 14.2098 25.8327 14.4933 26.187 14.8476C26.7186 15.3792 26.8249 16.1233 26.7894 26.258L33.1679 32.6364C36.676 36.1446 39.6172 39.0149 39.7235 39.0149C39.8298 39.0149 39.9007 38.2707 39.9007 37.3494C39.9361 36.0737 39.7235 35.4713 39.192 34.9398C38.8022 34.55 38.4833 33.9121 38.4833 33.5223C38.4833 33.1325 38.625 32.6364 38.7668 32.4238C38.9085 32.1758 39.6526 31.7505 40.4322 31.4316C41.7079 30.9355 41.9205 30.9001 42.6647 31.3962C43.1844 31.7505 43.4443 32.2821 43.4443 32.9908C43.4443 33.6995 43.8341 34.4791 44.6845 35.4004C45.8539 36.6407 45.8894 36.8533 45.9248 42.0269L43.7986 39.9008V41.6726C43.7986 43.1963 43.9404 43.5507 45.8894 45.2162L45.9248 54.6067L44.8617 55.6697C44.0113 56.5202 43.7986 57.0163 43.7986 58.3274C43.7986 59.2133 43.8695 59.922 43.9758 59.922C44.0821 59.922 44.5428 59.4968 45.8894 57.9731V60.6308C45.8894 63.1821 45.8539 63.3593 44.6845 64.635C43.905 65.45 43.4443 66.3005 43.4443 66.9383C43.4443 67.4699 43.3025 68.0723 43.1608 68.2849C43.0191 68.4975 42.6293 68.781 42.3103 68.8873C41.956 69.0291 41.0701 68.8873 40.3614 68.5684C39.6172 68.2495 38.9085 67.8242 38.7668 67.5762C38.625 67.3636 38.4833 66.8675 38.4833 66.4777C38.4833 66.0879 38.8022 65.45 39.192 65.0602C39.759 64.5287 39.9007 63.9617 39.7235 60.9851L26.7894 73.742V79.1637C26.7894 83.7704 26.6831 84.6563 26.1516 85.1878C25.8327 85.5422 25.2303 85.8256 24.8405 85.8256C24.4507 85.8256 23.9546 85.613 23.7065 85.365C23.4585 85.0815 23.2458 83.4514 23.0687 77.6754L19.8086 80.8292C17.4344 83.1325 16.265 84.0184 15.6271 84.0184C15.131 84.0184 14.4932 83.7704 14.2097 83.4869C13.9262 83.2034 13.6782 82.6719 13.6782 82.3529C13.7136 81.9986 15.2373 80.1559 20.5882 74.8051H16.8674C14.316 74.8051 13.0049 74.6634 12.686 74.3799C12.4379 74.1318 12.2607 73.5294 12.2253 73.0333C12.2253 72.5372 12.4379 71.9702 12.686 71.7576C12.9694 71.5096 15.45 71.2615 24.4861 70.9426L30.7937 64.635C34.231 61.1623 37.0658 58.2211 37.0658 58.0794C37.0658 57.9022 36.3217 57.9022 35.4003 58.0439C34.4436 58.1502 33.3096 58.5755 32.8135 58.9653C32.2466 59.3905 31.6087 59.5677 31.0417 59.4614C30.4039 59.3196 29.9432 58.7881 29.4826 57.725C28.9865 56.5202 28.9156 56.0241 29.2345 55.4217C29.518 54.8547 29.9432 54.6067 30.6874 54.6067C31.3607 54.6067 32.2466 54.1814 33.1325 53.4727C33.912 52.8349 34.5499 52.197 34.5499 52.0553C34.5853 51.8781 30.4748 51.7718 16.3359 51.7718L12.4379 55.6697C10.3118 57.7959 8.25648 59.5677 7.93755 59.5677C7.58319 59.5677 6.98079 59.4259 6.59099 59.2133C6.13032 59.0007 5.88227 58.5046 5.88227 57.9022C5.84684 57.1226 6.44925 56.343 8.36278 54.5358L8.36308 54.5355C9.70951 53.1891 10.8433 52.0553 10.8433 51.949C10.8433 51.8427 8.71714 51.7718 6.16576 51.7718C2.83479 51.7718 1.31105 51.6655 0.992125 51.3466C0.744074 51.0985 0.566895 50.4961 0.566895 50C0.566895 49.5039 0.744074 48.9015 0.992125 48.6889C1.27561 48.3699 2.83479 48.2282 11.0205 48.2282L8.46909 45.6768C6.80361 44.0113 5.88227 42.8065 5.88227 42.3104C5.88227 41.8498 6.13032 41.2473 6.44925 40.9639C6.73273 40.6804 7.33514 40.4323 7.76037 40.4323C8.25648 40.4678 9.92196 41.8143 16.3359 48.2282H25.4783C30.4748 48.2282 34.5853 48.1219 34.5499 47.9801C34.5499 47.803 33.9475 47.236 33.2388 46.6336C32.53 46.0666 31.6087 45.5705 31.2189 45.5351C30.8291 45.4996 30.2976 45.4642 30.085 45.4288C29.8369 45.4288 29.4471 45.039 29.2345 44.6137C28.9156 43.9759 28.951 43.5152 29.4471 42.3813C29.8015 41.6017 30.2621 40.8575 30.4748 40.7158C30.6874 40.5741 31.1126 40.4323 31.3961 40.4323C31.6796 40.4323 32.3883 40.7867 32.9198 41.2119C33.5577 41.7434 34.5145 42.0624 35.5067 42.1332C36.3571 42.1687 37.0658 42.0978 37.0658 41.9561C37.0658 41.7789 34.231 38.8377 24.4861 29.1283L18.8164 28.8802C15.4854 28.7385 12.9694 28.4904 12.686 28.2424C12.4379 28.0298 12.1899 27.4628 12.1899 26.9313C12.1544 26.4352 12.3316 25.8682 12.6151 25.6201C12.934 25.3366 14.4578 25.1949 20.5882 25.1949L17.1509 21.7576C15.2373 19.8441 13.7136 18.0369 13.7136 17.7534C13.7136 17.4699 13.9616 16.9383 14.316 16.584C14.6349 16.2296 15.2728 15.9461 15.7334 15.9816C16.2295 15.9816 17.6115 17.0801 19.7023 19.1708C21.4741 20.9072 22.9624 22.36 23.0687 22.36C23.175 22.36 23.2104 20.73 23.175 18.7101Z" fill="#FF921C"/>
<path d="M79.5889 29.6952C84.1601 27.073 88.4124 24.6279 88.9794 24.3444C89.5463 24.0255 90.3259 23.7775 90.6803 23.7775C90.9992 23.7775 91.6725 24.1673 92.1686 24.6634C92.6647 25.1595 93.0545 25.691 93.0545 25.9036C93.0545 26.1162 92.9128 26.6123 92.771 27.073C92.5584 27.5691 90.7157 28.8802 87.5265 30.7229C84.8334 32.3175 79.518 35.4004 75.7972 37.562C72.041 39.7236 68.6038 41.4954 68.1785 41.4954C67.7178 41.4954 67.0091 41.1765 66.5839 40.7867C66.1232 40.3969 65.7689 39.759 65.7689 39.3692C65.7689 38.9794 65.9461 38.3416 66.1232 37.9518C66.3359 37.562 67.5407 36.6407 68.8872 35.8611C70.1984 35.1169 75.0176 32.3529 79.5889 29.6952Z" fill="#FF921C"/>
<path d="M49.2558 50.3544C49.2203 43.2318 49.2558 37.2076 49.3621 36.9242C49.5038 36.5698 49.9645 36.4989 51.3819 36.6761C52.3741 36.8179 54.0396 37.314 55.0672 37.8101C56.0595 38.2707 57.7604 39.511 58.788 40.5386C59.8157 41.5308 61.0205 43.09 61.4457 43.9759C61.8709 44.8618 62.4025 46.5273 62.6151 47.6967C62.8986 49.2558 62.8986 50.4252 62.6151 52.1261C62.4025 53.4018 61.8709 55.1382 61.4457 56.0241C61.0205 56.91 59.8157 58.4692 58.788 59.4968C57.7604 60.489 55.9886 61.7647 54.8901 62.2962C53.5789 62.8632 52.1615 63.2176 49.2912 63.2884L49.2558 50.3544Z" fill="#FF921C"/>
<path d="M68.6037 50C68.6392 49.5748 69.029 48.8661 69.4896 48.4054L70.3401 47.5195H97.6612L98.5471 48.4054C99.0432 48.9015 99.4329 49.6102 99.4329 50C99.4329 50.3898 99.0432 51.0985 97.6966 52.4805H70.3755L69.4896 51.5946C68.9935 51.0985 68.6037 50.3898 68.6037 50Z" fill="#FF921C"/>
<path d="M65.698 60.6662C65.6626 60.2764 66.0169 59.6385 66.4776 59.2488C66.9383 58.859 67.6824 58.5046 68.1431 58.5046C68.6037 58.5046 71.9347 60.241 75.62 62.3671C79.2699 64.4933 84.5145 67.5053 87.3139 69.0999C90.8575 71.1198 92.4521 72.2537 92.7001 72.8561C92.9128 73.3522 93.0545 73.9192 93.0545 74.0964C93.0545 74.309 92.6647 74.876 92.204 75.3366C91.7079 75.8327 90.9992 76.2225 90.6094 76.2225C90.1842 76.2225 85.6838 73.8129 80.5811 70.8717C75.4429 67.9305 70.1984 64.8831 68.8872 64.1389C67.5407 63.3948 66.3359 62.438 66.1232 62.0482C65.9461 61.6584 65.7334 61.056 65.698 60.6662Z" fill="#FF921C"/>
<path d="M57.9021 68.3912C57.9021 68.0368 58.1856 67.5407 58.5045 67.2218C58.8235 66.9383 59.603 66.6549 60.2055 66.6549C60.8433 66.6549 61.5874 66.9383 61.9418 67.2927C62.2607 67.6116 65.4854 73.1042 69.0998 79.4118C73.8128 87.6683 75.6555 91.141 75.4783 91.6371C75.372 92.0269 74.9468 92.6648 74.5215 92.9837C74.0963 93.3381 73.423 93.6215 73.0332 93.6215C72.6434 93.6215 72.0765 93.4089 71.7221 93.1609C71.4032 92.9128 68.214 87.5974 64.5995 81.3607C61.0205 75.124 58.0084 69.8086 57.973 69.4897C57.9376 69.2062 57.9021 68.7101 57.9021 68.3912Z" fill="#FF921C"/>
<path d="M46.917 84.8689C46.8816 71.6513 46.917 70.7654 47.5194 70.163C47.8738 69.8086 48.6534 69.4897 49.2558 69.4897C49.929 69.4897 50.6378 69.7732 51.063 70.2339C51.7363 70.978 51.7717 71.4741 51.7717 98.618L50.8858 99.3267C50.3897 99.7165 49.681 100 49.2912 100C48.9014 100 48.2281 99.7519 46.9879 98.9015L46.917 84.8689Z" fill="#FF921C"/>
<path d="M39.1208 47.2723C38.5893 46.7053 38.1286 46.1738 38.1286 46.032V45.9966C38.1286 45.8548 38.8019 45.7485 39.6169 45.7485C40.8217 45.7485 41.3533 45.9612 42.0974 46.7053C42.629 47.2723 43.0896 47.8038 43.0896 47.9456C43.0896 48.1227 42.4163 48.229 41.6013 48.229C40.3965 48.229 39.865 48.0164 39.1208 47.2723Z" fill="white"/>
<path d="M38.0577 54.0405C38.0223 53.8988 38.4475 53.3318 39.0145 52.8003C39.7941 52.0207 40.3611 51.8081 41.5659 51.8081C42.4163 51.8081 43.0896 51.9144 43.0896 52.0561C43.0896 52.2333 42.629 52.7648 42.0974 53.3318C41.3533 54.076 40.8217 54.2886 39.6523 54.2886C38.8019 54.2886 38.0932 54.1823 38.0577 54.0405Z" fill="white"/>
</svg>
