<svg width="24" height="24" viewBox="0 0 24 24" fill="none" xmlns="http://www.w3.org/2000/svg">
<path d="M14.6652 2.33015C14.843 2.24123 15.0489 2.22658 15.2375 2.28939C15.4262 2.35221 15.5822 2.48737 15.6712 2.66515L17.8722 7.06715C19.2252 7.17115 20.0742 7.43715 20.6222 8.11415C21.0582 8.65315 21.1982 9.32315 21.1472 10.2501H2.85319C2.80219 9.32315 2.94319 8.65315 3.37819 8.11415C3.92619 7.43615 4.77519 7.17115 6.12819 7.06715L8.3292 2.66515C8.41897 2.48878 8.57481 2.35504 8.76276 2.29307C8.95071 2.23111 9.15554 2.24594 9.3326 2.33434C9.50966 2.42274 9.64461 2.57754 9.70803 2.76501C9.77146 2.95247 9.75821 3.1574 9.67119 3.33515L7.83619 7.00515C8.31819 7.00181 8.84686 7.00015 9.42219 7.00015H14.5782C15.1535 6.99948 15.6822 7.00115 16.1642 7.00515L14.3292 3.33515C14.2404 3.15719 14.2258 2.95122 14.2889 2.76256C14.3519 2.5739 14.4872 2.419 14.6652 2.33015Z" fill="#FF921C"/>
<path fill-rule="evenodd" clip-rule="evenodd" d="M3.55492 14.257C3.37049 13.4243 3.20046 12.5885 3.04492 11.75H20.9549C20.7994 12.5885 20.6294 13.4243 20.4449 14.257L20.0159 16.257C19.5289 18.53 19.2859 19.666 18.4609 20.333C17.6359 21 16.4739 21 14.1499 21H9.84992C7.52592 21 6.36392 21 5.53992 20.333C4.71392 19.666 4.46992 18.53 3.98392 16.257L3.55492 14.257ZM9.99992 13.25C9.80101 13.25 9.61024 13.329 9.46959 13.4697C9.32894 13.6103 9.24992 13.8011 9.24992 14C9.24992 14.1989 9.32894 14.3897 9.46959 14.5303C9.61024 14.671 9.80101 14.75 9.99992 14.75H13.9999C14.1988 14.75 14.3896 14.671 14.5303 14.5303C14.6709 14.3897 14.7499 14.1989 14.7499 14C14.7499 13.8011 14.6709 13.6103 14.5303 13.4697C14.3896 13.329 14.1988 13.25 13.9999 13.25H9.99992Z" fill="#FF921C"/>
</svg>
