<svg width="20" height="20" viewBox="0 0 20 20" fill="none" xmlns="http://www.w3.org/2000/svg">
<g clip-path="url(#clip0_98_742)">
<path d="M12.6687 16.25C12.9963 16.25 13.2953 16.1706 13.5658 16.0117C13.8362 15.8528 14.0521 15.6402 14.2134 15.3739C14.3747 15.1075 14.4554 14.813 14.4554 14.4904C14.4554 14.1679 14.3747 13.8734 14.2134 13.607C14.0521 13.3407 13.8362 13.1281 13.5658 12.9692C13.2953 12.8104 12.9963 12.7309 12.6687 12.7309C12.3412 12.7309 12.0422 12.8104 11.7717 12.9692C11.5013 13.1281 11.2842 13.3407 11.1204 13.607C10.9566 13.8734 10.8747 14.1679 10.8747 14.4904C10.8747 14.813 10.9566 15.1075 11.1204 15.3739C11.2842 15.6402 11.5013 15.8528 11.7717 16.0117C12.0422 16.1706 12.3412 16.25 12.6687 16.25ZM12.6687 15.3482C12.4256 15.3482 12.2196 15.2651 12.0509 15.099C11.8822 14.9328 11.7978 14.73 11.7978 14.4904C11.7978 14.2461 11.8822 14.042 12.0509 13.8783C12.2196 13.7146 12.4256 13.6327 12.6687 13.6327C12.9119 13.6327 13.1179 13.7146 13.2866 13.8783C13.4553 14.042 13.5397 14.2461 13.5397 14.4904C13.5397 14.73 13.4553 14.9328 13.2866 15.099C13.1179 15.2651 12.9119 15.3482 12.6687 15.3482ZM11.4851 13.8966H3.09553C2.93176 13.8966 2.79156 13.954 2.67494 14.0689C2.55831 14.1837 2.5 14.3243 2.5 14.4904C2.5 14.6517 2.55831 14.7898 2.67494 14.9047C2.79156 15.0195 2.93176 15.077 3.09553 15.077H11.4851V13.8966ZM16.9268 13.8966H13.9641V15.077H16.9268C17.0807 15.077 17.2147 15.0195 17.3288 14.9047C17.4429 14.7898 17.5 14.6517 17.5 14.4904C17.5 14.3243 17.4429 14.1837 17.3288 14.0689C17.2147 13.954 17.0807 13.8966 16.9268 13.8966ZM7.41316 11.7779C7.7407 11.7779 8.03971 11.6972 8.31018 11.5359C8.58066 11.3746 8.79654 11.1608 8.95783 10.8944C9.11912 10.628 9.19976 10.3336 9.19976 10.011C9.19976 9.6884 9.11912 9.39392 8.95783 9.12755C8.79654 8.86118 8.58066 8.64857 8.31018 8.48972C8.03971 8.33087 7.7407 8.25145 7.41316 8.25145C7.08562 8.25145 6.78661 8.33087 6.51613 8.48972C6.24566 8.64857 6.02979 8.86118 5.8685 9.12755C5.7072 9.39392 5.62655 9.6884 5.62655 10.011C5.62655 10.3336 5.7072 10.628 5.8685 10.8944C6.02979 11.1608 6.24566 11.3746 6.51613 11.5359C6.78661 11.6972 7.08562 11.7779 7.41316 11.7779ZM7.41316 10.8687C7.16998 10.8687 6.96403 10.7857 6.7953 10.6195C6.62656 10.4533 6.54219 10.2505 6.54219 10.011C6.54219 9.7666 6.62656 9.56254 6.7953 9.39881C6.96403 9.23508 7.16998 9.15321 7.41316 9.15321C7.6613 9.15321 7.86849 9.23508 8.03475 9.39881C8.201 9.56254 8.28413 9.7666 8.28413 10.011C8.28413 10.2505 8.201 10.4533 8.03475 10.6195C7.86849 10.7857 7.6613 10.8687 7.41316 10.8687ZM3.06576 9.41714C2.91687 9.41714 2.78536 9.47457 2.67122 9.58943C2.55707 9.70428 2.5 9.8448 2.5 10.011C2.5 10.1772 2.55707 10.3165 2.67122 10.4289C2.78536 10.5413 2.91687 10.5975 3.06576 10.5975H6.13276V9.41714H3.06576ZM16.897 9.41714H8.59679V10.5975H16.897C17.0658 10.5975 17.2085 10.5413 17.3251 10.4289C17.4417 10.3165 17.5 10.1772 17.5 10.011C17.5 9.8448 17.4417 9.70428 17.3251 9.58943C17.2085 9.47457 17.0658 9.41714 16.897 9.41714ZM12.6687 7.29104C12.9963 7.29104 13.2953 7.21162 13.5658 7.05277C13.8362 6.89392 14.0521 6.68131 14.2134 6.41494C14.3747 6.14857 14.4554 5.85409 14.4554 5.53151C14.4554 5.20893 14.3747 4.91445 14.2134 4.64808C14.0521 4.38171 13.8362 4.16787 13.5658 4.00658C13.2953 3.84529 12.9963 3.76465 12.6687 3.76465C12.3412 3.76465 12.0422 3.84529 11.7717 4.00658C11.5013 4.16787 11.2842 4.38171 11.1204 4.64808C10.9566 4.91445 10.8747 5.20893 10.8747 5.53151C10.8747 5.85409 10.9566 6.14857 11.1204 6.41494C11.2842 6.68131 11.5013 6.89392 11.7717 7.05277C12.0422 7.21162 12.3412 7.29104 12.6687 7.29104ZM12.6687 6.38928C12.4256 6.38928 12.2196 6.30497 12.0509 6.13635C11.8822 5.96773 11.7978 5.76367 11.7978 5.52418C11.7978 5.28469 11.8822 5.08185 12.0509 4.91567C12.2196 4.74949 12.4256 4.66641 12.6687 4.66641C12.9119 4.66641 13.1179 4.74949 13.2866 4.91567C13.4553 5.08185 13.5397 5.28469 13.5397 5.52418C13.5397 5.76367 13.4553 5.96773 13.2866 6.13635C13.1179 6.30497 12.9119 6.38928 12.6687 6.38928ZM11.5223 4.945H3.09553C2.93176 4.945 2.79156 5.00243 2.67494 5.11729C2.55831 5.23214 2.5 5.37022 2.5 5.53151C2.5 5.69769 2.55831 5.83821 2.67494 5.95306C2.79156 6.06792 2.93176 6.12535 3.09553 6.12535H11.5223V4.945ZM16.9268 4.945H13.8598V6.12535H16.9268C17.0807 6.12535 17.2147 6.06792 17.3288 5.95306C17.4429 5.83821 17.5 5.69769 17.5 5.53151C17.5 5.37022 17.4429 5.23214 17.3288 5.11729C17.2147 5.00243 17.0807 4.945 16.9268 4.945Z" fill="#101010"/>
</g>
<defs>
<clipPath id="clip0_98_742">
<rect width="15" height="12.5" fill="white" transform="translate(2.5 3.75)"/>
</clipPath>
</defs>
</svg>
