<svg width="40" height="40" viewBox="0 0 40 40" fill="none" xmlns="http://www.w3.org/2000/svg">
<rect width="40" height="40" rx="20" fill="#FF921C"/>
<path d="M20.0416 25.7395C19.9786 25.6766 19.9287 25.6019 19.8946 25.5198C19.8605 25.4376 19.843 25.3494 19.843 25.2605C19.843 25.1715 19.8605 25.0834 19.8946 25.0012C19.9287 24.919 19.9786 24.8443 20.0416 24.7814L24.9801 19.8438L11.7185 19.8438C11.539 19.8438 11.3668 19.7725 11.2398 19.6455C11.1128 19.5185 11.0415 19.3463 11.0415 19.1667C11.0415 18.9871 11.1128 18.8149 11.2398 18.6879C11.3668 18.561 11.539 18.4896 11.7185 18.4896L24.9801 18.4896L20.0416 13.552C19.9145 13.425 19.8432 13.2526 19.8432 13.073C19.8432 12.8933 19.9145 12.721 20.0416 12.5939C20.1686 12.4669 20.341 12.3955 20.5206 12.3955C20.7003 12.3955 20.8726 12.4669 20.9997 12.5939L27.0934 18.6877C27.1564 18.7506 27.2063 18.8252 27.2404 18.9074C27.2745 18.9896 27.292 19.0777 27.292 19.1667C27.292 19.2557 27.2745 19.3438 27.2404 19.426C27.2063 19.5082 27.1564 19.5829 27.0934 19.6458L20.9997 25.7395C20.9368 25.8025 20.8621 25.8524 20.7799 25.8865C20.6977 25.9205 20.6096 25.9381 20.5206 25.9381C20.4316 25.9381 20.3435 25.9205 20.2613 25.8865C20.1791 25.8524 20.1045 25.8025 20.0416 25.7395Z" fill="white"/>
</svg>
