<svg width="106" height="100" viewBox="0 0 106 100" fill="none" xmlns="http://www.w3.org/2000/svg">
<path fill-rule="evenodd" clip-rule="evenodd" d="M52.9999 96.9073L51.7927 99.3992L51.7816 99.3936L51.7484 99.377L51.6293 99.3189L51.1863 99.0974C50.8042 98.9036 50.2505 98.6156 49.55 98.2391C41.2524 93.748 33.4511 88.395 26.2756 82.2687C13.6389 71.3958 0.393066 55.2731 0.393066 35.23C0.393066 26.2231 3.37504 17.4987 8.48067 10.9754C13.6029 4.43835 20.9706 0 29.6397 0C39.9285 0 47.7392 5.83382 52.9999 14.0599C58.2578 5.83659 66.0685 0 76.3628 0C85.0291 0 92.3968 4.43835 97.5163 10.9782C102.627 17.4987 105.607 26.2203 105.607 35.2327C105.607 54.5117 92.3387 70.6371 79.7435 81.6707C72.088 88.3228 63.7511 94.1474 54.8716 99.0475L54.4313 99.2829L54.3123 99.3466L54.2818 99.3632L54.268 99.3687L52.9999 96.9073ZM12.8415 14.3893C8.53605 19.8881 5.93062 27.3943 5.93062 35.23C5.93062 52.7896 17.6038 67.5056 29.8861 78.0713C36.9865 84.129 44.7246 89.3966 52.9639 93.7813L53.7779 93.3273C61.7208 88.8033 69.196 83.5039 76.0943 77.5064C88.4153 66.7082 100.069 51.9977 100.069 35.2272C100.069 27.3915 97.4637 19.8881 93.1582 14.3893C88.8666 8.90993 82.9968 5.53756 76.3628 5.53756C67.1871 5.53756 60.0824 11.5375 55.4862 20.932L52.9999 26.0182L50.5135 20.9375C45.9173 11.5375 38.8126 5.53756 29.6369 5.53756C23.0029 5.53756 17.1331 8.90993 12.8415 14.3893Z" fill="#FF921C"/>
</svg>
