<svg width="99" height="74" viewBox="0 0 99 74" fill="none" xmlns="http://www.w3.org/2000/svg">
<path d="M50.2614 0.00171698C49.4582 -0.00328199 48.5937 0.00304232 48.3403 0.0154025C48.0871 0.0280372 47.6192 0.0569901 47.3007 0.0804133C46.9823 0.103576 46.4967 0.145949 46.2217 0.174376C45.9467 0.202803 45.4909 0.256234 45.2085 0.293082C44.9264 0.329666 44.5058 0.389152 44.2742 0.42495C44.0427 0.460747 43.5926 0.537602 43.2742 0.595767C42.9557 0.653937 42.3991 0.766849 42.0373 0.8466C41.6754 0.926612 41.1485 1.05085 40.8664 1.12296C40.5843 1.19482 40.1106 1.32352 39.8137 1.40881C39.5169 1.49435 39.0469 1.63595 38.7695 1.72412C38.4921 1.81203 38.0331 1.96627 37.7497 2.06681C37.4663 2.16736 36.9826 2.3466 36.6752 2.46478C36.3675 2.58322 35.8733 2.78352 35.5764 2.91012C35.2796 3.03672 34.8001 3.24912 34.5106 3.3823C34.2211 3.51522 33.6526 3.79343 33.2473 4.00031C32.8421 4.20719 32.3033 4.49226 32.0499 4.63385C31.7967 4.77518 31.3288 5.04734 31.0104 5.23869C30.6919 5.42978 30.1945 5.7393 29.9051 5.92671C29.6156 6.11411 29.1361 6.43759 28.8392 6.64551C28.5426 6.8537 28.0865 7.18403 27.826 7.37983C27.5654 7.57565 27.157 7.89255 26.918 8.0839C26.6793 8.27524 26.3062 8.58214 26.089 8.76557C25.8719 8.94929 25.4753 9.297 25.2074 9.5381C24.9398 9.77945 24.4142 10.2788 24.0397 10.648C23.6655 11.0171 23.1726 11.5205 22.9446 11.7667C22.7165 12.0128 22.4141 12.3444 22.2722 12.5036C22.1306 12.6629 21.8025 13.0477 21.543 13.359C21.2835 13.6702 20.9029 14.1439 20.6971 14.4119C20.4913 14.6795 20.1976 15.0709 20.0444 15.2812C19.8915 15.4915 19.6123 15.8884 19.4239 16.163C19.2355 16.4375 18.946 16.8755 18.7805 17.136C18.6149 17.3966 18.3486 17.8293 18.1886 18.0972C18.0286 18.3654 17.7596 18.8334 17.5912 19.1369C17.4225 19.4406 17.1378 19.9791 16.9586 20.3339C16.7793 20.6885 16.5183 21.2275 16.378 21.5315C16.238 21.8355 16.0283 22.3085 15.9122 22.5825C15.7964 22.8565 15.6243 23.2768 15.5301 23.5169C15.4359 23.7566 15.2595 24.2288 15.1382 24.5663C15.0169 24.9034 14.8403 25.4225 14.7458 25.7193C14.6513 26.0162 14.51 26.4805 14.4318 26.7511C14.3539 27.0217 14.2245 27.4978 14.1442 27.8089C14.0642 28.12 13.9337 28.6709 13.8539 29.0328C13.7744 29.3947 13.6618 29.9514 13.6034 30.2699C13.5452 30.5884 13.4621 31.0798 13.4189 31.3622C13.3757 31.6443 13.3165 32.0649 13.2873 32.2965C13.2584 32.5282 13.2107 32.9485 13.1815 33.2309C13.1523 33.5131 13.1112 33.981 13.0899 34.2706C13.0686 34.5601 13.0373 35.1168 13.0205 35.5076C13.001 35.954 12.9949 36.6784 13.0044 37.4553C13.0128 38.1357 13.032 38.8819 13.0473 39.1135C13.0628 39.3451 13.0936 39.7597 13.1162 40.0347C13.1386 40.3098 13.1862 40.7954 13.2215 41.1139C13.257 41.4323 13.3281 41.9819 13.3792 42.3349C13.4305 42.6881 13.5197 43.239 13.5776 43.5588C13.6352 43.8788 13.741 44.4131 13.8123 44.7461C13.8837 45.079 14.0018 45.5923 14.0747 45.8866C14.1476 46.1811 14.2555 46.5956 14.3145 46.8078C14.3734 47.0202 14.4971 47.4426 14.5895 47.7466C14.6819 48.0506 14.8453 48.5599 14.9529 48.8784C15.0606 49.1968 15.249 49.7238 15.3722 50.0496C15.4951 50.3752 15.6964 50.8845 15.8196 51.1814C15.9427 51.4783 16.1477 51.9521 16.2751 52.2342C16.4022 52.5164 16.6872 53.1086 16.908 53.5502C17.1288 53.9919 17.4473 54.6002 17.6152 54.9023C17.7834 55.2042 18.0344 55.6425 18.1734 55.8762C18.3124 56.1096 18.5266 56.4605 18.6495 56.656C18.7724 56.8513 19.039 57.2601 19.2419 57.5641C19.4451 57.8681 19.7646 58.33 19.9522 58.5906C20.1401 58.8512 20.4067 59.2123 20.5446 59.3934C20.6825 59.5742 20.9375 59.9 21.1112 60.1172C21.2849 60.3343 21.5226 60.6244 21.6394 60.762L21.8521 61.0121L21.8652 66.9076L21.8784 72.8032L21.9481 72.9943C21.9866 73.0996 22.0545 73.2417 22.0989 73.3101C22.1434 73.3788 22.215 73.472 22.2579 73.5175C22.301 73.5631 22.3871 73.6415 22.4495 73.692C22.5116 73.7426 22.6245 73.8152 22.7003 73.8531C22.7761 73.891 22.9121 73.9397 23.0029 73.961C23.1474 73.9953 24.8957 74 37.0633 74C45.9141 74.0003 51.1738 73.9908 51.551 73.974C51.8769 73.9595 52.3979 73.9295 52.709 73.9071C53.0203 73.8847 53.5527 73.8371 53.8922 73.801C54.232 73.7652 54.7707 73.7 55.0897 73.6565C55.4086 73.6128 55.9126 73.5357 56.2092 73.4852C56.5061 73.4344 56.9856 73.3457 57.2751 73.2878C57.5645 73.2299 58.0814 73.1178 58.4235 73.0383C58.7657 72.9588 59.3257 72.8177 59.6684 72.7245C60.011 72.6313 60.5658 72.4705 60.9016 72.3671C61.2374 72.2639 61.7669 72.0907 62.078 71.9828C62.389 71.8746 62.8925 71.6907 63.1964 71.5741C63.5004 71.4575 64.0096 71.2522 64.3281 71.1182C64.6465 70.9842 65.1321 70.771 65.4071 70.6447C65.6821 70.5181 66.1676 70.2844 66.4861 70.1254C66.8045 69.9662 67.2725 69.7232 67.5256 69.5856C67.7791 69.4479 68.1936 69.2163 68.4467 69.0707C68.7002 68.9252 69.1263 68.6707 69.3942 68.5051C69.6621 68.3396 70.1179 68.0474 70.4074 67.8559C70.6969 67.6642 71.1706 67.3382 71.4601 67.131C71.7496 66.9241 72.1346 66.6417 72.3154 66.5035C72.4964 66.3656 72.8517 66.0869 73.1049 65.8845C73.3583 65.6821 73.8023 65.313 74.0918 65.0646C74.3813 64.8161 74.8611 64.3874 75.1576 64.1121C75.4545 63.837 75.9932 63.3108 76.3551 62.9435C76.7169 62.576 77.2101 62.0559 77.4509 61.7882C77.692 61.5203 78.0347 61.1294 78.2126 60.9197C78.3905 60.7096 78.7021 60.3306 78.9044 60.0774C79.1071 59.824 79.4458 59.3857 79.6572 59.1036C79.8685 58.8212 80.2059 58.3545 80.4067 58.0663C80.6077 57.7778 80.9399 57.2804 81.1449 56.9608C81.3499 56.641 81.6483 56.1599 81.8083 55.892C81.9681 55.6238 82.2371 55.1558 82.406 54.8523C82.5747 54.5486 82.8876 53.9506 83.1013 53.5237C83.315 53.0967 83.5943 52.5161 83.7216 52.234C83.8493 51.9518 84.0572 51.472 84.1841 51.168C84.3109 50.864 84.5277 50.3134 84.6662 49.9441C84.8044 49.5748 85.0004 49.0242 85.102 48.7202C85.2036 48.4162 85.3578 47.9306 85.4447 47.6411C85.5315 47.3515 85.6684 46.8717 85.7489 46.5751C85.8291 46.2782 85.9594 45.7571 86.0384 45.417C86.1173 45.0767 86.2292 44.5616 86.2873 44.272C86.3455 43.9825 86.4405 43.4614 86.4984 43.114C86.5563 42.7665 86.6337 42.2593 86.6705 41.9869C86.7071 41.7145 86.766 41.217 86.8016 40.8815C86.8374 40.5459 86.8845 40.0166 86.9068 39.7055C86.9292 39.3941 86.9592 38.873 86.9737 38.5474C86.9882 38.2215 87 37.5227 87 36.9945C87 36.466 86.9882 35.7672 86.9737 35.4416C86.9592 35.1157 86.9292 34.5946 86.9068 34.2835C86.8845 33.9721 86.8374 33.4431 86.8016 33.1075C86.766 32.7719 86.7071 32.2745 86.6705 32.002C86.6337 31.7296 86.5563 31.2224 86.4984 30.875C86.4405 30.5276 86.3455 30.0064 86.2873 29.7169C86.2292 29.4274 86.1173 28.9123 86.0384 28.5719C85.9594 28.2316 85.8291 27.7105 85.7486 27.4139C85.6681 27.117 85.537 26.6553 85.4573 26.3874C85.3775 26.1194 85.2236 25.6338 85.1152 25.3082C85.0065 24.9824 84.8046 24.4139 84.6662 24.0448C84.528 23.6756 84.3109 23.125 84.1841 22.821C84.0572 22.517 83.8493 22.0371 83.7222 21.755C83.5948 21.4726 83.3156 20.8922 83.1016 20.4653C82.8877 20.0381 82.5745 19.4401 82.4058 19.1361C82.2371 18.8321 81.9397 18.3183 81.7452 17.9943C81.5507 17.6703 81.2399 17.1713 81.0546 16.8855C80.8693 16.5999 80.5485 16.1248 80.3417 15.8298C80.1348 15.5347 79.8056 15.0802 79.6098 14.8196C79.414 14.559 79.0972 14.1503 78.9058 13.9116C78.7145 13.6726 78.4076 13.2996 78.2242 13.0825C78.0405 12.8653 77.6929 12.4687 77.4518 12.2007C77.2105 11.9331 76.7112 11.4077 76.342 11.0332C75.9731 10.6586 75.4638 10.1596 75.2104 9.92402C74.9572 9.68845 74.584 9.35051 74.3814 9.17285C74.1787 8.99545 73.8295 8.69724 73.605 8.51011C73.3808 8.32297 72.9697 7.99293 72.6918 7.77654C72.4137 7.56019 71.9518 7.21383 71.6655 7.00667C71.3789 6.79979 70.9786 6.5171 70.7759 6.37868C70.5733 6.24023 70.2062 5.99756 69.9601 5.83939C69.714 5.68121 69.2995 5.42301 69.039 5.2656C68.7784 5.10847 68.281 4.82131 67.9337 4.62785C67.5863 4.43413 66.9881 4.11778 66.6046 3.92459C66.2212 3.7314 65.6883 3.47293 65.4204 3.35004C65.1524 3.22712 64.6966 3.02603 64.4071 2.90312C64.1176 2.7802 63.6203 2.57885 63.3018 2.45567C62.9834 2.33223 62.4846 2.14772 62.1936 2.0456C61.9028 1.94321 61.3993 1.77634 61.0751 1.67501C60.7511 1.57341 60.249 1.42417 59.9595 1.34337C59.67 1.26257 59.1489 1.12675 58.8016 1.04148C58.4542 0.95646 57.9744 0.845124 57.7357 0.794064C57.497 0.743265 57.0115 0.648251 56.6567 0.583236C56.3022 0.517961 55.7219 0.422947 55.3671 0.371623C55.0127 0.320298 54.4619 0.249498 54.1434 0.214225C53.825 0.178958 53.4165 0.136846 53.2354 0.121054C53.0546 0.104996 52.6401 0.0736771 52.3143 0.0510396C51.9254 0.0241938 51.2207 0.00750652 50.2614 0.00171698Z" fill="#FF921C"/>
<path d="M39.7858 49.2104C39.9757 49.2104 40.1439 49.2555 40.2902 49.3458C40.4396 49.4361 40.5548 49.5654 40.6358 49.7335C40.7167 49.8985 40.7572 50.0916 40.7572 50.3127C40.7572 50.5618 40.7121 50.7829 40.6218 50.9759C40.5315 51.1659 40.4038 51.3138 40.2388 51.4196C40.0769 51.5255 39.8901 51.5784 39.6784 51.5784C39.504 51.5784 39.353 51.5426 39.2254 51.471C39.0977 51.3994 38.9996 51.2951 38.9311 51.1581L38.8985 51.5457H38.4268L38.6883 48.2529H39.16L39.0526 49.5794C39.1304 49.4642 39.2332 49.3739 39.3608 49.3085C39.4916 49.2431 39.6333 49.2104 39.7858 49.2104ZM39.613 51.2047C39.8216 51.2047 39.9835 51.1269 40.0987 50.9712C40.217 50.8155 40.2762 50.6006 40.2762 50.3266C40.2762 50.09 40.2217 49.9078 40.1127 49.7801C40.0038 49.6525 39.8481 49.5886 39.6457 49.5886C39.4402 49.5886 39.2783 49.668 39.16 49.8269C39.0417 49.9825 38.9825 50.1958 38.9825 50.4668C38.9825 50.7065 39.037 50.8902 39.146 51.0179C39.255 51.1424 39.4106 51.2047 39.613 51.2047Z" fill="white"/>
<path d="M43.4173 49.2695L41.8154 52.385H41.3391L41.8014 51.4836L41.0215 49.2697H41.5025L42.0816 51.0072L42.9362 49.2697L43.4173 49.2695Z" fill="white"/>
<path d="M44.4766 51.1851L44.7661 51.1664C44.928 51.154 45.051 51.1041 45.1351 51.017C45.2191 50.9298 45.2674 50.799 45.2798 50.6246L45.4667 48.252H45.9524L45.7655 50.6246C45.7437 50.9235 45.6519 51.1493 45.49 51.3019C45.3312 51.4545 45.1024 51.5401 44.8035 51.5588L44.4952 51.5821L44.4766 51.1851Z" fill="white"/>
<path d="M48.5839 49.2656L48.4065 51.545H47.9441L47.9721 51.1994C47.8943 51.3208 47.79 51.4142 47.6592 51.4796C47.5316 51.545 47.3884 51.5777 47.2296 51.5777C46.9774 51.5777 46.7859 51.5107 46.6551 51.3769C46.5244 51.2398 46.459 51.0406 46.459 50.779C46.459 50.723 46.4605 50.6809 46.4637 50.6529L46.5757 49.2657H47.0474L46.9354 50.6249L46.9307 50.7089C46.9307 51.0328 47.0817 51.1947 47.3837 51.1947C47.5674 51.1947 47.7137 51.1371 47.8227 51.0219C47.9317 50.9067 47.9939 50.7479 48.0095 50.5455L48.1122 49.2657L48.5839 49.2656Z" fill="white"/>
<path d="M49.8978 51.5771C49.5304 51.5771 49.2113 51.4805 48.9404 51.2875L49.1086 50.9465C49.3514 51.1271 49.6176 51.2174 49.9072 51.2174C50.0691 51.2174 50.1905 51.1925 50.2714 51.1427C50.3555 51.0929 50.3975 51.0212 50.3975 50.9278C50.3975 50.8375 50.3555 50.769 50.2714 50.7223C50.1874 50.6725 50.0566 50.6227 49.8791 50.5729C49.7172 50.5261 49.5865 50.481 49.4868 50.4374C49.3872 50.3938 49.3016 50.33 49.23 50.2459C49.1584 50.1587 49.1226 50.0466 49.1226 49.9096C49.1226 49.6979 49.2066 49.5282 49.3748 49.4005C49.546 49.2728 49.7717 49.209 50.0519 49.209C50.2169 49.209 50.3757 49.2355 50.5283 49.2884C50.6809 49.3413 50.807 49.4129 50.9066 49.5032L50.7385 49.8349C50.5205 49.6574 50.2917 49.5686 50.0519 49.5686C49.8963 49.5686 49.7764 49.5951 49.6923 49.648C49.6083 49.701 49.5662 49.7788 49.5662 49.8816C49.5662 49.9719 49.6067 50.0404 49.6877 50.0871C49.7717 50.1338 49.9025 50.1821 50.08 50.2319C50.2419 50.2786 50.3726 50.3237 50.4723 50.3673C50.5719 50.4109 50.6575 50.4763 50.7291 50.5635C50.8007 50.6476 50.8365 50.7597 50.8365 50.8998C50.8365 51.1115 50.7509 51.2781 50.5797 51.3996C50.4115 51.5179 50.1843 51.5771 49.8978 51.5771Z" fill="white"/>
<path d="M51.9702 50.6996L51.9655 50.779C51.9655 51.0686 52.1087 51.2134 52.3952 51.2134C52.4606 51.2134 52.5306 51.2087 52.6053 51.1994L52.554 51.5544C52.4792 51.57 52.4014 51.5777 52.3204 51.5777C52.0527 51.5777 51.8472 51.5139 51.704 51.3862C51.5639 51.2555 51.4938 51.0686 51.4938 50.8257C51.4938 50.7759 51.4954 50.7386 51.4985 50.7136L51.5825 49.63H51.1436L51.1716 49.2657H51.6106L51.6666 48.5791H52.1383L52.0823 49.2657H52.7081L52.6801 49.63H52.0542L51.9702 50.6996Z" fill="white"/>
<path d="M55.2315 50.733H53.5689L53.1579 51.5457H52.6582L54.3815 48.2529H54.7831L55.9927 51.5457H55.5164L55.2315 50.733ZM55.0961 50.35L54.5496 48.79L53.7604 50.35H55.0961Z" fill="white"/>
<path d="M58.7267 48.252L58.4698 51.5448H58.0028L58.0308 51.2039C57.9561 51.3222 57.8533 51.414 57.7226 51.4794C57.5949 51.5448 57.4532 51.5775 57.2976 51.5775C57.1076 51.5775 56.938 51.5339 56.7885 51.4467C56.6422 51.3564 56.5285 51.2288 56.4476 51.0637C56.3666 50.8987 56.3262 50.7056 56.3262 50.4846C56.3262 50.2323 56.3713 50.0097 56.4616 49.8167C56.5519 49.6236 56.678 49.4741 56.8399 49.3683C57.0049 49.2624 57.1933 49.2094 57.405 49.2094C57.5762 49.2094 57.7257 49.2453 57.8533 49.3169C57.981 49.3885 58.0791 49.4913 58.1476 49.6251L58.255 48.252L58.7267 48.252ZM57.433 51.204C57.6416 51.204 57.8051 51.1261 57.9234 50.9704C58.0417 50.8116 58.1008 50.5968 58.1008 50.3259C58.1008 50.0861 58.0464 49.904 57.9374 49.7794C57.8284 49.6517 57.6727 49.5879 57.4704 49.5879C57.2617 49.5879 57.0983 49.6658 56.98 49.8214C56.8617 49.9771 56.8025 50.1904 56.8025 50.4613C56.8025 50.698 56.857 50.8817 56.966 51.0125C57.0781 51.1402 57.2337 51.204 57.433 51.204Z" fill="white"/>
<path d="M61.4893 48.252L61.2325 51.5448H60.7655L60.7935 51.2039C60.7188 51.3222 60.616 51.414 60.4852 51.4794C60.3576 51.5448 60.2159 51.5775 60.0603 51.5775C59.8703 51.5775 59.7006 51.5339 59.5512 51.4467C59.4049 51.3564 59.2912 51.2288 59.2103 51.0637C59.1293 50.8987 59.0889 50.7056 59.0889 50.4846C59.0889 50.2323 59.134 50.0097 59.2243 49.8167C59.3146 49.6236 59.4407 49.4741 59.6026 49.3683C59.7676 49.2624 59.956 49.2094 60.1677 49.2094C60.3389 49.2094 60.4884 49.2453 60.616 49.3169C60.7437 49.3885 60.8418 49.4913 60.9102 49.6251L61.0177 48.252L61.4893 48.252ZM60.1957 51.204C60.4043 51.204 60.5678 51.1261 60.6861 50.9704C60.8044 50.8116 60.8635 50.5968 60.8635 50.3259C60.8635 50.0861 60.809 49.904 60.7001 49.7794C60.5911 49.6517 60.4354 49.5879 60.2331 49.5879C60.0244 49.5879 59.861 49.6658 59.7427 49.8214C59.6244 49.9771 59.5652 50.1904 59.5652 50.4613C59.5652 50.698 59.6197 50.8817 59.7287 51.0125C59.8408 51.1402 59.9964 51.204 60.1957 51.204Z" fill="white"/>
<path d="M22.6522 46.1215C23.9972 46.1215 25.2581 45.6171 26.204 44.6713C27.1497 43.7254 27.6751 42.4643 27.6751 41.1191V29.6221L24.3756 30.673V41.1191C24.3756 42.0649 23.598 42.8216 22.6523 42.8216C22.1899 42.8216 21.7696 42.6534 21.4333 42.3382L19.1006 44.6712C20.0463 45.617 21.3071 46.1215 22.6522 46.1215Z" fill="white"/>
<path d="M29.9287 46.0384H35.3087C36.4226 46.0384 37.5154 45.8282 38.5242 45.4078C39.512 44.9875 40.3946 44.3989 41.1512 43.6423C41.9288 42.9066 42.5173 42.0239 42.9376 41.0361C43.3789 40.0272 43.5891 38.9343 43.5891 37.8202C43.5891 36.7062 43.3789 35.6132 42.9376 34.6043C42.5173 33.6165 41.9078 32.7547 41.1512 31.9981C40.3946 31.2415 39.512 30.653 38.5242 30.2536C37.4945 29.8332 36.4226 29.623 35.3087 29.623H29.9287V46.0384ZM35.3087 42.7385H33.228V32.9216H35.3085C36.6535 32.9216 37.9144 33.426 38.8392 34.3509C39.7849 35.2757 40.2893 36.4947 40.2893 37.8188C40.2893 39.143 39.7849 40.383 38.8392 41.3079C37.8935 42.2327 36.6536 42.7371 35.3085 42.7371L35.3087 42.7385Z" fill="white"/>
<path d="M44.9455 40.8466V46.0172H48.0979V40.8466C48.0979 38.8079 49.7581 37.1684 51.7757 37.1684V34.0156C50.851 34.0156 49.9683 34.1838 49.1276 34.5411C48.3079 34.8984 47.5724 35.3818 46.9629 36.0124C46.3324 36.6429 45.828 37.3786 45.4917 38.1773C45.1345 39.0181 44.9455 39.9218 44.9455 40.8466Z" fill="white"/>
<path d="M52.502 34.9396V46.0163H55.6755V33.8887L52.502 34.9396Z" fill="white"/>
<path d="M66.5419 36.0542C65.5542 35.0453 64.2092 34.4989 62.801 34.4989C62.0654 34.4989 61.3299 34.646 60.6783 34.9403V34.1836H57.5259V39.3331C57.5049 39.4802 57.5049 39.6483 57.5049 39.7955H57.5259V46.017H60.6783V39.5012C60.8254 38.4503 61.7291 37.6516 62.801 37.6516C63.9779 37.6516 64.9446 38.6184 64.9446 39.7954V46.0169H68.097V39.7954C68.097 38.3872 67.5507 37.0631 66.5419 36.0542Z" fill="white"/>
<path d="M74.0482 41.6653L76.8433 46.0162H80.5422L76.2549 39.3532L80.8155 34.3089H76.7567L72.7846 38.7437V29.0752H69.6113V46.016H72.7848V43.0313L74.0482 41.6653Z" fill="white"/>
<path d="M49.8671 16.7949L49.8477 16.792L49.5584 17.0552C49.3993 17.2 49.2698 17.3192 49.2705 17.3201C49.2713 17.3211 49.3044 17.3183 49.3439 17.3141C49.3835 17.3099 49.4552 17.304 49.5032 17.3009C49.555 17.2977 49.637 17.2966 49.7046 17.2983C49.772 17.3001 49.8473 17.3051 49.889 17.3107C49.9277 17.3158 49.9853 17.3258 50.0169 17.333C50.0487 17.3401 50.0967 17.3536 50.1237 17.363C50.1507 17.3724 50.1944 17.3911 50.2208 17.4046C50.2471 17.4181 50.2853 17.4415 50.3057 17.4567C50.326 17.4718 50.3547 17.4973 50.3695 17.5133C50.3843 17.5294 50.4046 17.5549 50.4147 17.57C50.4247 17.5852 50.4385 17.6101 50.4453 17.6254C50.4521 17.6408 50.4618 17.6695 50.4668 17.6893C50.472 17.7095 50.4761 17.7418 50.4761 17.763C50.4761 17.7902 50.4725 17.8121 50.4634 17.8411C50.4565 17.8632 50.4424 17.899 50.4322 17.9205C50.422 17.942 50.3985 17.9824 50.3801 18.0103C50.3618 18.0381 50.3327 18.0784 50.3157 18.0998C50.2987 18.1211 50.2541 18.17 50.2166 18.2084C50.1792 18.2468 50.1189 18.3038 50.0827 18.335C50.0465 18.3662 49.9567 18.4366 49.8832 18.4915C49.8096 18.5464 49.7148 18.6192 49.6724 18.6533C49.6301 18.6874 49.5659 18.7406 49.5299 18.7714C49.4939 18.8023 49.4261 18.8627 49.3794 18.9058C49.3326 18.9489 49.263 19.0166 49.2246 19.0563C49.1863 19.0961 49.1328 19.1537 49.1058 19.1844C49.0788 19.215 49.039 19.262 49.0174 19.2887C48.9959 19.3154 48.9594 19.3634 48.9363 19.3955C48.9133 19.4275 48.8776 19.482 48.8569 19.5166C48.8362 19.5512 48.808 19.6073 48.794 19.6414C48.7801 19.6755 48.7576 19.7373 48.744 19.7787C48.7304 19.8201 48.7128 19.881 48.705 19.9139C48.6971 19.9469 48.6863 20.0005 48.681 20.0331C48.6757 20.0656 48.6689 20.1255 48.6659 20.1661C48.6629 20.2067 48.6618 20.2628 48.6635 20.2908C48.6653 20.3188 48.6699 20.3668 48.674 20.3973C48.678 20.4279 48.6887 20.4815 48.6976 20.5165C48.7066 20.5515 48.7221 20.6008 48.732 20.626C48.7419 20.6511 48.7597 20.6913 48.7717 20.7151C48.7836 20.7389 48.804 20.7757 48.8171 20.7968C48.8302 20.8179 48.8567 20.8562 48.876 20.882C48.8953 20.9079 48.9439 20.9619 48.9839 21.0021C49.024 21.0424 49.0775 21.0917 49.1029 21.1118C49.1283 21.1318 49.1697 21.1625 49.1951 21.18C49.2204 21.1975 49.2609 21.2238 49.285 21.2385C49.309 21.2531 49.3533 21.2783 49.3834 21.2944C49.4135 21.3106 49.4685 21.3381 49.5057 21.3556C49.5429 21.373 49.6089 21.4013 49.6523 21.4184C49.6957 21.4355 49.7641 21.4605 49.8043 21.474C49.8445 21.4874 49.9079 21.5072 49.945 21.5179C49.9822 21.5286 50.0476 21.5461 50.0903 21.5568C50.133 21.5676 50.2116 21.585 50.265 21.5956C50.3184 21.6063 50.3981 21.6206 50.4421 21.6274C50.4862 21.6341 50.5495 21.6428 50.5828 21.6467C50.6162 21.6505 50.6441 21.653 50.645 21.6521C50.6458 21.6513 50.5706 21.5216 50.4778 21.364L50.309 21.0774L50.2506 21.0574C50.2185 21.0464 50.1616 21.0253 50.1243 21.0106C50.0869 20.9958 50.0127 20.9623 49.9593 20.936C49.9059 20.9097 49.8388 20.8734 49.8101 20.8552C49.7815 20.8371 49.7358 20.8058 49.7086 20.7858C49.6814 20.7658 49.635 20.7253 49.6054 20.6959C49.5759 20.6664 49.5375 20.6222 49.5202 20.5977C49.5028 20.5731 49.4793 20.5349 49.4679 20.5129C49.4565 20.4909 49.4406 20.4526 49.4327 20.4278C49.4247 20.403 49.4147 20.3627 49.4104 20.338C49.4045 20.3042 49.4033 20.2761 49.4053 20.2229C49.4069 20.1812 49.4121 20.1337 49.4179 20.1064C49.4233 20.081 49.4352 20.0385 49.4442 20.0118C49.4534 19.9851 49.469 19.9447 49.4791 19.922C49.4891 19.8993 49.5094 19.8589 49.5242 19.8322C49.5388 19.8056 49.5629 19.7652 49.5775 19.7425C49.592 19.7198 49.6186 19.6816 49.6364 19.6575C49.6542 19.6335 49.6907 19.5876 49.7174 19.5555C49.7442 19.5234 49.7986 19.4635 49.8384 19.4225C49.8782 19.3815 49.9425 19.3196 49.9811 19.285C50.0199 19.2505 50.0766 19.202 50.1073 19.1773C50.138 19.1526 50.197 19.1088 50.2383 19.08C50.2797 19.0511 50.3474 19.0019 50.3887 18.9705C50.4301 18.9392 50.488 18.8936 50.5173 18.8691C50.5467 18.8446 50.6026 18.7952 50.6416 18.7593C50.6806 18.7234 50.7388 18.6651 50.771 18.6299C50.8032 18.5945 50.8416 18.5509 50.8564 18.5327C50.8712 18.5146 50.8995 18.4775 50.9194 18.4502C50.9392 18.423 50.968 18.3799 50.9835 18.3546C50.9989 18.3292 51.0263 18.2779 51.0443 18.2405C51.0623 18.2031 51.0847 18.1494 51.0941 18.121C51.1036 18.0926 51.1158 18.0479 51.1214 18.0215C51.127 17.9949 51.1328 17.9445 51.1344 17.9081C51.1361 17.8675 51.1352 17.8287 51.1315 17.8062C51.1284 17.7861 51.1181 17.7414 51.1086 17.7067C51.0991 17.672 51.0816 17.6196 51.0696 17.5902C51.0577 17.5609 51.0368 17.5172 51.0234 17.4932C51.0099 17.4692 50.9889 17.4353 50.9768 17.418C50.9646 17.4006 50.9418 17.3706 50.9261 17.3512C50.9104 17.3319 50.877 17.2955 50.852 17.2704C50.8269 17.2454 50.7844 17.2072 50.7576 17.1856C50.7308 17.164 50.6894 17.1333 50.6656 17.1173C50.6418 17.1013 50.6022 17.076 50.5776 17.061C50.553 17.0461 50.5008 17.0178 50.4615 16.9982C50.4222 16.9785 50.3609 16.9501 50.3251 16.935C50.2894 16.9199 50.2154 16.8926 50.1607 16.8744C50.106 16.8561 50.0219 16.8314 49.9739 16.8195C49.9258 16.8076 49.8778 16.7965 49.8671 16.7949ZM47.1967 18.0671C47.1921 18.0671 47.0965 18.1506 46.9843 18.2525C46.8722 18.3544 46.7809 18.4382 46.7816 18.4386C46.7822 18.439 46.8078 18.4365 46.8384 18.4329C46.8691 18.4294 46.9412 18.425 46.9986 18.4232C47.0664 18.4211 47.1256 18.4221 47.1679 18.4258C47.2036 18.429 47.2545 18.4359 47.2811 18.4412C47.3076 18.4466 47.3472 18.4565 47.369 18.4633C47.3908 18.4701 47.4304 18.4869 47.4571 18.5007C47.4953 18.5204 47.514 18.534 47.545 18.5645C47.5764 18.5955 47.5883 18.6117 47.6044 18.6446C47.6176 18.6717 47.6262 18.6978 47.6296 18.7208C47.6339 18.7494 47.6335 18.7614 47.6273 18.7863C47.6231 18.8032 47.6089 18.8388 47.5958 18.8655C47.5826 18.8922 47.5613 18.9285 47.5485 18.9462C47.5355 18.9638 47.5076 18.9985 47.4862 19.0231C47.4649 19.0478 47.4223 19.0908 47.3916 19.1187C47.3609 19.1467 47.2878 19.2057 47.2292 19.2498C47.1706 19.294 47.0975 19.3504 47.0667 19.3751C47.0359 19.3998 46.991 19.4368 46.967 19.4574C46.943 19.4779 46.8905 19.5251 46.8504 19.5622C46.8103 19.5993 46.7546 19.6543 46.7265 19.6843C46.6984 19.7144 46.658 19.7596 46.6365 19.785C46.6151 19.8103 46.5843 19.8487 46.5681 19.8701C46.552 19.8916 46.5263 19.9282 46.5111 19.9515C46.496 19.9747 46.4741 20.0139 46.4624 20.0386C46.4508 20.0633 46.4322 20.1097 46.4212 20.1417C46.4102 20.1737 46.3959 20.2201 46.3895 20.2447C46.383 20.2693 46.3744 20.3087 46.3704 20.3323C46.3663 20.3558 46.3607 20.4025 46.358 20.4361C46.3546 20.4776 46.3546 20.5155 46.358 20.5548C46.3607 20.5865 46.3665 20.6298 46.3708 20.6511C46.375 20.6724 46.3861 20.7117 46.3954 20.7384C46.4046 20.7652 46.4239 20.8096 46.4382 20.8371C46.4525 20.8646 46.4769 20.9049 46.4924 20.9266C46.5079 20.9483 46.5412 20.9877 46.5665 21.0141C46.5917 21.0405 46.6288 21.0758 46.649 21.0926C46.6691 21.1093 46.7096 21.1394 46.739 21.1594C46.7683 21.1795 46.8164 21.2092 46.8457 21.2255C46.8751 21.2419 46.9275 21.2681 46.9622 21.2838C46.9969 21.2995 47.0581 21.3245 47.0982 21.3394C47.1383 21.3542 47.2049 21.3762 47.2462 21.3882C47.2875 21.4001 47.354 21.4176 47.394 21.427C47.4341 21.4364 47.4976 21.4496 47.5351 21.4564C47.5727 21.4633 47.6361 21.473 47.6758 21.4781C47.7157 21.4832 47.7489 21.4868 47.7497 21.486C47.7505 21.4852 47.6978 21.3943 47.6326 21.2839L47.5141 21.0832L47.4954 21.0764C47.485 21.0726 47.4448 21.0576 47.4062 21.043C47.3675 21.0284 47.3037 21.0004 47.2645 20.9807C47.2252 20.961 47.1771 20.9348 47.1577 20.9224C47.1383 20.9099 47.106 20.8871 47.0859 20.8719C47.0659 20.8566 47.0338 20.828 47.0145 20.8082C46.9952 20.7886 46.9708 20.7608 46.9602 20.7466C46.9496 20.7323 46.9322 20.7038 46.9215 20.6833C46.9109 20.6629 46.8975 20.6297 46.8917 20.6098C46.8851 20.5868 46.8804 20.5532 46.8787 20.5178C46.8772 20.4865 46.8785 20.4469 46.8814 20.4276C46.8844 20.4087 46.8924 20.3738 46.8993 20.3499C46.9061 20.3262 46.9256 20.2783 46.9425 20.2436C46.9595 20.2089 46.988 20.1586 47.0058 20.132C47.0237 20.1053 47.0542 20.0638 47.0735 20.0397C47.0928 20.0157 47.1287 19.9742 47.1533 19.9475C47.1778 19.9209 47.2224 19.8764 47.2523 19.8487C47.2822 19.8209 47.3302 19.7789 47.359 19.7553C47.3878 19.7317 47.4326 19.6978 47.4585 19.6798C47.4844 19.6619 47.5354 19.6247 47.5719 19.5972C47.6083 19.5697 47.665 19.5235 47.698 19.4945C47.731 19.4655 47.7831 19.4159 47.8139 19.3841C47.8447 19.3524 47.8837 19.3093 47.9007 19.2884C47.9175 19.2675 47.9478 19.226 47.9677 19.1962C47.9877 19.1664 48.0156 19.118 48.0298 19.0886C48.0439 19.0592 48.061 19.0175 48.0678 18.9958C48.0746 18.9741 48.0838 18.937 48.0882 18.9133C48.0939 18.8829 48.0956 18.8546 48.094 18.8169C48.0928 18.7875 48.088 18.7504 48.0835 18.7344C48.0788 18.7183 48.0695 18.6878 48.0626 18.6664C48.0557 18.6451 48.0397 18.6068 48.027 18.5815C48.0144 18.556 47.9924 18.5189 47.9782 18.4989C47.9642 18.4788 47.9329 18.4421 47.9087 18.4171C47.8845 18.3921 47.8485 18.3583 47.8284 18.3422C47.8084 18.326 47.7691 18.2977 47.741 18.2794C47.713 18.2611 47.6627 18.2321 47.6291 18.2151C47.5955 18.1979 47.5442 18.1742 47.515 18.1624C47.4859 18.1505 47.438 18.1327 47.4087 18.1229C47.3793 18.1131 47.3216 18.0965 47.2803 18.086C47.2391 18.0755 47.2014 18.0671 47.1967 18.0671ZM52.1592 18.0675C52.1532 18.0677 52.0701 18.14 51.9466 18.2527C51.8352 18.3543 51.7446 18.4379 51.7452 18.4384C51.746 18.439 51.7728 18.4362 51.8048 18.4323C51.842 18.4277 51.9129 18.4249 52.0013 18.4245C52.1127 18.4241 52.1505 18.4255 52.1954 18.4326C52.2261 18.4374 52.272 18.4467 52.2973 18.4534C52.3227 18.4601 52.3605 18.4729 52.3813 18.4819C52.4022 18.4909 52.4316 18.5056 52.4467 18.5145C52.4618 18.5234 52.4906 18.547 52.5107 18.567C52.5322 18.5884 52.5536 18.6154 52.5625 18.6325C52.5709 18.6486 52.5813 18.6735 52.5855 18.688C52.5898 18.7025 52.5933 18.7294 52.5933 18.7476C52.5933 18.7683 52.5895 18.7921 52.5833 18.8105C52.5778 18.8269 52.5665 18.8535 52.5583 18.8698C52.5501 18.8861 52.5347 18.9126 52.5239 18.9286C52.5132 18.9446 52.4895 18.9755 52.4713 18.9973C52.453 19.0192 52.4223 19.0531 52.4029 19.0729C52.3835 19.0926 52.348 19.1258 52.324 19.1467C52.3 19.1676 52.2421 19.2131 52.1954 19.2478C52.1487 19.2826 52.0744 19.3399 52.0304 19.3751C51.9864 19.4103 51.9187 19.4671 51.88 19.5014C51.8413 19.5357 51.7736 19.6 51.7296 19.6443C51.6856 19.6886 51.6255 19.7538 51.5961 19.7893C51.5668 19.8248 51.5292 19.8727 51.5126 19.8959C51.4961 19.919 51.4694 19.9598 51.4533 19.9865C51.4371 20.0135 51.4132 20.0637 51.3995 20.0998C51.3859 20.1354 51.3675 20.1915 51.3585 20.2243C51.3495 20.2572 51.3377 20.3111 51.3323 20.344C51.3269 20.3769 51.3211 20.4267 51.3193 20.4548C51.3175 20.4836 51.3185 20.53 51.3217 20.5616C51.3248 20.5922 51.3306 20.6337 51.3347 20.6538C51.3388 20.6738 51.3486 20.7097 51.3565 20.7335C51.3645 20.7574 51.38 20.7956 51.3912 20.8185C51.4023 20.8413 51.4266 20.8829 51.4453 20.9108C51.4654 20.9408 51.5009 20.984 51.5326 21.0167C51.562 21.0471 51.6047 21.0867 51.6275 21.1048C51.6503 21.1228 51.6891 21.1512 51.7137 21.1677C51.7384 21.1841 51.7864 21.2129 51.8204 21.2314C51.8544 21.25 51.9052 21.2753 51.9333 21.2877C51.9614 21.3 52.0127 21.321 52.0474 21.3342C52.0821 21.3474 52.1454 21.3687 52.1881 21.3816C52.2308 21.3944 52.2936 21.4118 52.3277 21.4201C52.3618 21.4284 52.4218 21.4416 52.4612 21.4494C52.5005 21.4572 52.5665 21.468 52.6078 21.4736C52.6492 21.4791 52.6901 21.4845 52.6988 21.4857L52.7146 21.4878L52.709 21.4772C52.7059 21.4713 52.6523 21.3799 52.5898 21.274L52.4762 21.0814L52.4438 21.0708C52.4259 21.0649 52.3841 21.0494 52.3507 21.0362C52.3173 21.023 52.261 20.998 52.2255 20.9804C52.1901 20.9629 52.1355 20.9316 52.1042 20.9109C52.073 20.8901 52.0321 20.8599 52.0134 20.8436C51.9948 20.8275 51.9661 20.7985 51.9497 20.7794C51.9333 20.7602 51.9113 20.7301 51.9008 20.7125C51.8902 20.6949 51.8756 20.6654 51.8683 20.6472C51.861 20.6288 51.852 20.5994 51.8482 20.5816C51.8444 20.5639 51.8413 20.5262 51.8413 20.4978C51.8412 20.4694 51.8446 20.4283 51.8487 20.4065C51.8528 20.3847 51.8629 20.3479 51.8711 20.3247C51.8793 20.3015 51.8975 20.2596 51.9116 20.2316C51.9257 20.2036 51.9502 20.1609 51.9662 20.1369C51.9821 20.1129 52.0087 20.0758 52.0253 20.0544C52.0419 20.0331 52.0787 19.9897 52.1071 19.9581C52.1354 19.9265 52.1886 19.8733 52.2252 19.8399C52.2618 19.8066 52.3116 19.7634 52.3359 19.744C52.3602 19.7246 52.4104 19.6876 52.4474 19.6617C52.4845 19.6359 52.5493 19.5871 52.5917 19.5533C52.6349 19.5187 52.7046 19.4558 52.7513 19.4092C52.7968 19.3637 52.8488 19.3079 52.8669 19.2852C52.885 19.2625 52.914 19.2225 52.9315 19.1961C52.949 19.1698 52.9749 19.125 52.9892 19.0965C53.0034 19.068 53.0218 19.0242 53.03 18.9991C53.0382 18.9739 53.0484 18.9336 53.0526 18.9094C53.0579 18.8789 53.0594 18.8499 53.0576 18.8145C53.0556 18.7761 53.0507 18.7487 53.0375 18.7034C53.0279 18.6703 53.0113 18.6244 53.0006 18.6016C52.9898 18.5787 52.9742 18.549 52.9658 18.5356C52.9574 18.5222 52.937 18.4938 52.9205 18.4724C52.904 18.4511 52.8711 18.415 52.8475 18.3923C52.8238 18.3696 52.7873 18.3382 52.7663 18.3225C52.7454 18.3069 52.7097 18.2824 52.687 18.2682C52.6644 18.2539 52.6226 18.2304 52.5941 18.2159C52.5656 18.2014 52.5215 18.1808 52.496 18.1699C52.4705 18.1592 52.4203 18.1402 52.3844 18.1279C52.3485 18.1155 52.2854 18.0968 52.2442 18.0863C52.203 18.0758 52.1647 18.0673 52.1592 18.0675ZM49.4879 22.2844H44.6114L44.6114 22.3803C44.6114 22.433 44.6136 22.5416 44.6162 22.6217C44.6187 22.7018 44.6231 22.811 44.626 22.8644C44.6288 22.9177 44.6344 23.0095 44.6383 23.0682C44.6423 23.1269 44.6511 23.2371 44.6577 23.3132C44.6644 23.3893 44.6774 23.5198 44.6868 23.6033C44.6962 23.6867 44.7103 23.8036 44.7182 23.8629C44.7262 23.9223 44.7394 24.0155 44.7476 24.0703C44.7557 24.125 44.7711 24.2222 44.7817 24.2862C44.7922 24.3503 44.8107 24.4559 44.8228 24.521C44.8348 24.5861 44.8545 24.6876 44.8665 24.7466C44.8786 24.8057 44.8983 24.8987 44.9103 24.9535C44.9224 25.0082 44.9453 25.1075 44.9612 25.1743C44.9771 25.241 45.0065 25.3573 45.0265 25.4328C45.0465 25.5082 45.075 25.6109 45.0897 25.6609C45.1045 25.7108 45.1296 25.7932 45.1456 25.844C45.1615 25.8947 45.189 25.9777 45.2065 26.0284C45.224 26.0791 45.2569 26.1675 45.2795 26.2249C45.3022 26.2823 45.3371 26.3664 45.3572 26.4117C45.3773 26.4571 45.4152 26.5379 45.4415 26.5913C45.4677 26.6447 45.511 26.7282 45.5376 26.777C45.5643 26.8257 45.6072 26.901 45.6331 26.9444C45.6589 26.9877 45.7156 27.0767 45.7589 27.1421C45.8023 27.2074 45.8704 27.3047 45.9103 27.358C45.9502 27.4114 46.0113 27.49 46.0461 27.5327C46.0809 27.5754 46.1284 27.6322 46.1518 27.6589C46.1752 27.6856 46.2266 27.7424 46.2661 27.7851C46.3056 27.8278 46.3735 27.8977 46.4172 27.9405C46.4608 27.9833 46.5226 28.0423 46.5547 28.0716C46.5867 28.101 46.6424 28.1503 46.6784 28.1811C46.7145 28.212 46.7767 28.2634 46.8167 28.2954C46.8567 28.3274 46.919 28.3755 46.955 28.4023C46.991 28.4291 47.0576 28.4766 47.103 28.5079C47.1483 28.5392 47.2224 28.5879 47.2676 28.616C47.3128 28.6442 47.3848 28.6869 47.4277 28.7108C47.4706 28.7348 47.5231 28.7629 47.5443 28.7732L47.5828 28.792H51.5142L51.5552 28.778C51.5777 28.7704 51.6245 28.7531 51.6592 28.7398C51.6939 28.7264 51.7536 28.7021 51.7917 28.6857C51.8299 28.6693 51.8987 28.6375 51.9446 28.615C51.9904 28.5924 52.064 28.5539 52.1081 28.5295C52.1521 28.505 52.2242 28.4625 52.2682 28.4351C52.3122 28.4077 52.3788 28.364 52.4162 28.338C52.4535 28.312 52.5158 28.2667 52.5545 28.2372C52.5932 28.2078 52.6564 28.1574 52.6949 28.1251C52.7335 28.0929 52.7881 28.0459 52.8162 28.0208C52.8444 27.9956 52.9134 27.929 52.9695 27.8727C53.0257 27.8165 53.0968 27.7421 53.1276 27.7074C53.1584 27.6727 53.2071 27.6159 53.2359 27.5812C53.2646 27.5465 53.316 27.481 53.35 27.4357C53.3841 27.3903 53.4336 27.3204 53.46 27.2804C53.4865 27.2403 53.5128 27.1995 53.5186 27.1897C53.5269 27.1755 53.533 27.1711 53.5476 27.1685C53.5578 27.1667 53.6065 27.1578 53.6559 27.1487C53.7053 27.1395 53.7839 27.1232 53.8306 27.1125C53.8773 27.1018 53.9559 27.0821 54.0053 27.0687C54.0547 27.0553 54.1496 27.0262 54.2163 27.004C54.2831 26.9819 54.377 26.9478 54.425 26.9285C54.473 26.9091 54.5527 26.8749 54.6021 26.8525C54.6515 26.8301 54.7312 26.7908 54.7792 26.7652C54.8272 26.7396 54.8939 26.7022 54.9272 26.6822C54.9606 26.6622 55.0184 26.6257 55.0558 26.601C55.0931 26.5763 55.1499 26.537 55.1819 26.5136C55.214 26.4902 55.2655 26.4507 55.2965 26.4258C55.3276 26.4009 55.3833 26.3535 55.4203 26.3204C55.4573 26.2873 55.5237 26.2234 55.5678 26.1782C55.612 26.1332 55.6667 26.0744 55.6894 26.0478C55.7122 26.0211 55.7487 25.9768 55.7705 25.9493C55.7923 25.9219 55.8283 25.8739 55.8504 25.8426C55.8725 25.8113 55.9042 25.7646 55.9208 25.7388C55.9374 25.7129 55.9622 25.6726 55.9759 25.649C55.9896 25.6254 56.0157 25.5756 56.0341 25.5382C56.0525 25.5008 56.0804 25.4451 56.0962 25.4144C56.1121 25.3837 56.137 25.3311 56.1517 25.2975C56.1663 25.2639 56.1883 25.2088 56.2005 25.1752C56.2127 25.1416 56.2323 25.0806 56.244 25.0396C56.2557 24.9987 56.2721 24.933 56.2804 24.8938C56.2887 24.8545 56.2997 24.7957 56.3049 24.7629C56.3102 24.7302 56.3178 24.6725 56.3219 24.6347C56.3261 24.5968 56.3318 24.517 56.3347 24.4572C56.3385 24.3791 56.3385 24.318 56.3347 24.2403C56.3318 24.1808 56.3272 24.1111 56.3244 24.0854C56.3217 24.0597 56.3118 24.0123 56.3026 23.98C56.2933 23.9478 56.2762 23.8963 56.2645 23.8656C56.2529 23.8349 56.2286 23.7809 56.2107 23.7455C56.1927 23.7102 56.1634 23.659 56.1454 23.6319C56.1275 23.6047 56.1012 23.5683 56.087 23.551C56.0729 23.5336 56.0414 23.499 56.0171 23.4741C55.9927 23.4493 55.9565 23.4151 55.9365 23.3983C55.9165 23.3815 55.8794 23.3537 55.854 23.3365C55.8286 23.3193 55.7884 23.2947 55.7646 23.2817C55.7409 23.2688 55.6994 23.2485 55.6725 23.2366C55.6455 23.2247 55.6038 23.208 55.5798 23.1993C55.5558 23.1906 55.5067 23.1756 55.4706 23.166C55.4346 23.1563 55.3757 23.143 55.3396 23.1365C55.3036 23.13 55.2411 23.1212 55.2009 23.1171C55.1605 23.1129 55.0874 23.1081 55.0383 23.1064C54.9874 23.1046 54.9084 23.1056 54.8544 23.1088C54.8024 23.1119 54.7303 23.1177 54.6943 23.1217C54.6583 23.1257 54.595 23.1346 54.5536 23.1414C54.5122 23.1483 54.455 23.1591 54.4265 23.1656C54.398 23.172 54.3723 23.1773 54.3695 23.1773C54.3659 23.1773 54.3643 23.0419 54.3643 22.7308V22.2844L49.4879 22.2844ZM45.6061 23.1773H45.8696L45.8665 23.2149C45.8649 23.2356 45.8602 23.2919 45.8562 23.3399C45.8522 23.3879 45.8466 23.4687 45.844 23.5194C45.8412 23.5702 45.8391 23.6957 45.8391 23.7985C45.839 23.9012 45.8412 24.0257 45.8439 24.0751C45.8465 24.1245 45.8521 24.2053 45.8561 24.2547C45.8602 24.304 45.869 24.3902 45.8756 24.4462C45.8822 24.5022 45.8941 24.5898 45.9021 24.6408C45.91 24.6919 45.9242 24.775 45.9338 24.8254C45.9433 24.8758 45.9587 24.9509 45.968 24.9923C45.9773 25.0336 45.9978 25.1177 46.0135 25.1791C46.0292 25.2405 46.0563 25.3377 46.0737 25.3951C46.0911 25.4524 46.1198 25.542 46.1376 25.594C46.1553 25.6461 46.1852 25.729 46.2041 25.7784C46.2229 25.8278 46.2552 25.9086 46.2759 25.958C46.2966 26.0073 46.3315 26.0871 46.3535 26.1351C46.3754 26.1832 46.4163 26.2683 46.4443 26.3244C46.4723 26.3804 46.5161 26.4645 46.5415 26.5112C46.567 26.5579 46.6124 26.6377 46.6424 26.6886C46.6723 26.7394 46.7202 26.8181 46.7489 26.8633C46.7775 26.9085 46.8257 26.9821 46.856 27.0268C46.8863 27.0714 46.9392 27.1467 46.9737 27.1942C47.0081 27.2416 47.0651 27.3173 47.1003 27.3623C47.1355 27.4074 47.192 27.4773 47.2258 27.5176C47.2596 27.558 47.3135 27.6204 47.3456 27.6564C47.3776 27.6924 47.4334 27.7527 47.4694 27.7904C47.5054 27.828 47.5615 27.8843 47.5941 27.9154C47.6267 27.9465 47.6524 27.9719 47.6512 27.9719C47.65 27.9719 47.6266 27.9619 47.5992 27.9496C47.5719 27.9373 47.52 27.9123 47.4839 27.894C47.4479 27.8758 47.386 27.8422 47.3464 27.8194C47.3068 27.7967 47.237 27.7532 47.1912 27.7229C47.1453 27.6924 47.0839 27.6495 47.0545 27.6273C47.0252 27.6051 46.9848 27.5738 46.9647 27.5576C46.9448 27.5415 46.9055 27.5085 46.8774 27.4844C46.8494 27.4603 46.7885 27.4034 46.7421 27.358C46.6957 27.3127 46.6311 27.2457 46.5984 27.2092C46.5658 27.1726 46.52 27.1196 46.4967 27.0912C46.4734 27.0629 46.4274 27.0038 46.3944 26.96C46.3615 26.9161 46.3074 26.8392 46.2743 26.7892C46.2411 26.7391 46.1933 26.6631 46.168 26.6204C46.1427 26.5777 46.1086 26.5185 46.0923 26.4888C46.0759 26.4591 46.0386 26.387 46.0093 26.3286C45.98 26.2702 45.9372 26.1799 45.9141 26.1279C45.891 26.0758 45.854 25.9874 45.8318 25.9313C45.8095 25.8753 45.7772 25.7901 45.7599 25.7421C45.7426 25.694 45.7142 25.6099 45.6968 25.5552C45.6794 25.5005 45.6542 25.4175 45.6408 25.3708C45.6273 25.3241 45.6043 25.2389 45.5895 25.1816C45.5748 25.1242 45.5549 25.0434 45.5454 25.002C45.5359 24.9606 45.5184 24.8795 45.5067 24.8218C45.4949 24.764 45.4765 24.6669 45.4659 24.6058C45.4553 24.5448 45.441 24.4578 45.4343 24.4124C45.4275 24.367 45.4176 24.2971 45.4123 24.2571C45.4069 24.2171 45.3971 24.1352 45.3905 24.0751C45.3838 24.015 45.374 23.9102 45.3686 23.8422C45.3631 23.7741 45.3564 23.6835 45.3536 23.6408C45.3507 23.5981 45.3472 23.4764 45.3456 23.3703L45.3428 23.1774L45.6061 23.1773ZM55.0061 23.6731C55.0643 23.6727 55.1331 23.6745 55.159 23.6773C55.1849 23.6801 55.229 23.6868 55.257 23.6922C55.2851 23.6975 55.3334 23.7104 55.3643 23.7207C55.3953 23.731 55.4379 23.7481 55.459 23.7587C55.4801 23.7693 55.5116 23.7876 55.5292 23.7994C55.5468 23.8112 55.5737 23.8316 55.5891 23.8448C55.6045 23.858 55.6312 23.8863 55.6484 23.9077C55.6656 23.929 55.6894 23.9636 55.7012 23.9844C55.713 24.0053 55.7302 24.0413 55.7394 24.0645C55.7486 24.0877 55.7608 24.1247 55.7663 24.1468C55.7719 24.1689 55.7798 24.2082 55.7838 24.2342C55.7878 24.2601 55.7924 24.3195 55.794 24.3663C55.7958 24.4163 55.7946 24.482 55.7912 24.5264C55.7881 24.5677 55.7811 24.6328 55.7758 24.671C55.7705 24.7092 55.7597 24.7725 55.7517 24.8117C55.7437 24.851 55.7295 24.9122 55.7201 24.9478C55.7106 24.9833 55.6934 25.0413 55.6818 25.0765C55.6701 25.1118 55.6493 25.1689 55.6356 25.2035C55.6218 25.2381 55.5944 25.3 55.5745 25.3411C55.5547 25.3822 55.5272 25.4356 55.5135 25.46C55.4998 25.4843 55.4639 25.5414 55.434 25.5867C55.404 25.6321 55.3558 25.6987 55.327 25.7348C55.2981 25.7708 55.2351 25.8396 55.1869 25.8877C55.1387 25.9358 55.0782 25.9923 55.0523 26.0134C55.0264 26.0345 54.978 26.0716 54.9446 26.0958C54.9112 26.1201 54.8618 26.1538 54.8348 26.1706C54.8077 26.1875 54.7558 26.218 54.7193 26.2384C54.6828 26.2588 54.6213 26.29 54.5826 26.3078C54.5439 26.3256 54.4817 26.3523 54.4443 26.367C54.4069 26.3817 54.3462 26.4039 54.3094 26.4163C54.2726 26.4286 54.2077 26.4484 54.1652 26.4602C54.1226 26.4719 54.0523 26.4893 54.0089 26.4988C53.9655 26.5083 53.8918 26.5226 53.8451 26.5306C53.7984 26.5386 53.7597 26.5452 53.759 26.5452C53.7584 26.5452 53.7718 26.5239 53.7888 26.4979C53.8057 26.4718 53.8321 26.4288 53.8473 26.4023C53.8626 26.3757 53.8943 26.3157 53.9177 26.2688C53.9411 26.222 53.9739 26.152 53.9905 26.1133C54.0072 26.0746 54.0338 26.0091 54.0497 25.9677C54.0656 25.9263 54.0926 25.851 54.1096 25.8003C54.1267 25.7496 54.1547 25.6589 54.1718 25.5989C54.189 25.5388 54.213 25.4471 54.2253 25.3951C54.2376 25.343 54.2563 25.2578 54.267 25.2058C54.2776 25.1537 54.2939 25.0653 54.3032 25.0093C54.3125 24.9532 54.3245 24.8757 54.3298 24.837C54.3352 24.7983 54.345 24.7164 54.3517 24.655C54.3584 24.5936 54.3672 24.5008 54.3711 24.4488C54.3752 24.3967 54.3809 24.3105 54.384 24.2571C54.387 24.2037 54.3909 24.0729 54.3926 23.9664L54.3958 23.7728L54.4152 23.766C54.4259 23.7623 54.4685 23.7507 54.5098 23.7403C54.5512 23.7299 54.6134 23.7157 54.6481 23.7089C54.6828 23.702 54.7451 23.6921 54.7864 23.6869C54.8278 23.6817 54.8703 23.6767 54.881 23.6757C54.8917 23.6747 54.948 23.6736 55.0061 23.6731ZM49.6506 29.3988H44.4072L44.4105 29.417C44.4123 29.427 44.4211 29.465 44.43 29.5014C44.4389 29.5378 44.4539 29.5918 44.4635 29.6213C44.473 29.6508 44.4918 29.7017 44.5052 29.7344C44.5187 29.7672 44.5448 29.8235 44.5632 29.8596C44.5816 29.8957 44.6111 29.9482 44.6286 29.9763C44.6462 30.0043 44.6827 30.0567 44.7098 30.0927C44.7424 30.1362 44.7876 30.187 44.8441 30.2436C44.891 30.2906 44.95 30.345 44.9754 30.3645C45.0008 30.384 45.0444 30.4151 45.0724 30.4337C45.1005 30.4522 45.1359 30.4738 45.1511 30.4815L45.1789 30.4955L49.5594 30.4943L53.9399 30.4931L53.9967 30.4703C54.0279 30.4578 54.0775 30.4355 54.1068 30.4208C54.1362 30.4061 54.1772 30.3838 54.198 30.3712C54.2189 30.3586 54.2556 30.3342 54.2796 30.317C54.3036 30.2998 54.3385 30.2735 54.3572 30.2584C54.3759 30.2434 54.4196 30.2027 54.4544 30.168C54.4891 30.1333 54.5351 30.083 54.5566 30.0561C54.578 30.0294 54.6111 29.9857 54.63 29.9591C54.649 29.9325 54.679 29.8868 54.6968 29.8574C54.7145 29.8281 54.747 29.768 54.769 29.724C54.791 29.6799 54.8173 29.6231 54.8276 29.5978C54.8378 29.5724 54.8554 29.5244 54.8667 29.491C54.878 29.4577 54.8888 29.4233 54.8907 29.4146L54.8942 29.3988L49.6506 29.3988Z" fill="white"/>
</svg>
