<svg width="20" height="21" viewBox="0 0 20 21" fill="none" xmlns="http://www.w3.org/2000/svg">
<path d="M9.99984 10.0832C9.4473 10.0832 8.9174 9.86368 8.5267 9.47298C8.136 9.08228 7.9165 8.55237 7.9165 7.99984C7.9165 7.4473 8.136 6.9174 8.5267 6.5267C8.9174 6.136 9.4473 5.9165 9.99984 5.9165C10.5524 5.9165 11.0823 6.136 11.473 6.5267C11.8637 6.9174 12.0832 7.4473 12.0832 7.99984C12.0832 8.27342 12.0293 8.54433 11.9246 8.79709C11.8199 9.04986 11.6664 9.27952 11.473 9.47298C11.2795 9.66643 11.0499 9.81989 10.7971 9.92459C10.5443 10.0293 10.2734 10.0832 9.99984 10.0832ZM9.99984 2.1665C8.45274 2.1665 6.96901 2.78109 5.87505 3.87505C4.78109 4.96901 4.1665 6.45274 4.1665 7.99984C4.1665 12.3748 9.99984 18.8332 9.99984 18.8332C9.99984 18.8332 15.8332 12.3748 15.8332 7.99984C15.8332 6.45274 15.2186 4.96901 14.1246 3.87505C13.0307 2.78109 11.5469 2.1665 9.99984 2.1665Z" fill="#101010"/>
</svg>
