<svg width="36" height="36" viewBox="0 0 36 36" fill="none" xmlns="http://www.w3.org/2000/svg">
<rect width="36" height="36" rx="18" fill="white"/>
<g clip-path="url(#clip0_4204_1958)">
<path d="M24 18V25.05C24 25.1091 23.9884 25.1676 23.9657 25.2222C23.9431 25.2768 23.91 25.3264 23.8682 25.3682C23.8264 25.41 23.7768 25.4431 23.7222 25.4657C23.6676 25.4884 23.6091 25.5 23.55 25.5H12.45C12.3909 25.5 12.3324 25.4884 12.2778 25.4657C12.2232 25.4431 12.1736 25.41 12.1318 25.3682C12.09 25.3264 12.0569 25.2768 12.0343 25.2222C12.0116 25.1676 12 25.1091 12 25.05V18M18 25.5V14.25M18 14.25H14.625C14.1277 14.25 13.6508 14.0525 13.2992 13.7008C12.9475 13.3492 12.75 12.8723 12.75 12.375C12.75 11.8777 12.9475 11.4008 13.2992 11.0492C13.6508 10.6975 14.1277 10.5 14.625 10.5C17.25 10.5 18 14.25 18 14.25ZM18 14.25H21.375C21.8723 14.25 22.3492 14.0525 22.7008 13.7008C23.0525 13.3492 23.25 12.8723 23.25 12.375C23.25 11.8777 23.0525 11.4008 22.7008 11.0492C22.3492 10.6975 21.8723 10.5 21.375 10.5C18.75 10.5 18 14.25 18 14.25ZM25.05 14.25H10.95C10.8307 14.25 10.7162 14.2974 10.6318 14.3818C10.5474 14.4662 10.5 14.5807 10.5 14.7V17.55C10.5 17.6693 10.5474 17.7838 10.6318 17.8682C10.7162 17.9526 10.8307 18 10.95 18H25.05C25.1693 18 25.2838 17.9526 25.3682 17.8682C25.4526 17.7838 25.5 17.6693 25.5 17.55V14.7C25.5 14.5807 25.4526 14.4662 25.3682 14.3818C25.2838 14.2974 25.1693 14.25 25.05 14.25Z" stroke="#FF921C" stroke-width="1.5" stroke-linecap="round" stroke-linejoin="round"/>
</g>
<defs>
<clipPath id="clip0_4204_1958">
<rect width="18" height="18" fill="white" transform="translate(9 9)"/>
</clipPath>
</defs>
</svg>
