<svg width="20" height="21" viewBox="0 0 20 21" fill="none" xmlns="http://www.w3.org/2000/svg">
<g clip-path="url(#clip0_98_736)">
<path d="M12.6687 16.75C12.9963 16.75 13.2953 16.6706 13.5658 16.5117C13.8362 16.3528 14.0521 16.1402 14.2134 15.8739C14.3747 15.6075 14.4554 15.313 14.4554 14.9904C14.4554 14.6679 14.3747 14.3734 14.2134 14.107C14.0521 13.8407 13.8362 13.6281 13.5658 13.4692C13.2953 13.3104 12.9963 13.2309 12.6687 13.2309C12.3412 13.2309 12.0422 13.3104 11.7717 13.4692C11.5013 13.6281 11.2842 13.8407 11.1204 14.107C10.9566 14.3734 10.8747 14.6679 10.8747 14.9904C10.8747 15.313 10.9566 15.6075 11.1204 15.8739C11.2842 16.1402 11.5013 16.3528 11.7717 16.5117C12.0422 16.6706 12.3412 16.75 12.6687 16.75ZM12.6687 15.8482C12.4256 15.8482 12.2196 15.7651 12.0509 15.599C11.8822 15.4328 11.7978 15.23 11.7978 14.9904C11.7978 14.7461 11.8822 14.542 12.0509 14.3783C12.2196 14.2146 12.4256 14.1327 12.6687 14.1327C12.9119 14.1327 13.1179 14.2146 13.2866 14.3783C13.4553 14.542 13.5397 14.7461 13.5397 14.9904C13.5397 15.23 13.4553 15.4328 13.2866 15.599C13.1179 15.7651 12.9119 15.8482 12.6687 15.8482ZM11.4851 14.3966H3.09553C2.93176 14.3966 2.79156 14.454 2.67494 14.5689C2.55831 14.6837 2.5 14.8243 2.5 14.9904C2.5 15.1517 2.55831 15.2898 2.67494 15.4047C2.79156 15.5195 2.93176 15.577 3.09553 15.577H11.4851V14.3966ZM16.9268 14.3966H13.9641V15.577H16.9268C17.0807 15.577 17.2147 15.5195 17.3288 15.4047C17.4429 15.2898 17.5 15.1517 17.5 14.9904C17.5 14.8243 17.4429 14.6837 17.3288 14.5689C17.2147 14.454 17.0807 14.3966 16.9268 14.3966ZM7.41316 12.2779C7.7407 12.2779 8.03971 12.1972 8.31018 12.0359C8.58066 11.8746 8.79654 11.6608 8.95783 11.3944C9.11912 11.128 9.19976 10.8336 9.19976 10.511C9.19976 10.1884 9.11912 9.89392 8.95783 9.62755C8.79654 9.36118 8.58066 9.14857 8.31018 8.98972C8.03971 8.83087 7.7407 8.75145 7.41316 8.75145C7.08562 8.75145 6.78661 8.83087 6.51613 8.98972C6.24566 9.14857 6.02979 9.36118 5.8685 9.62755C5.7072 9.89392 5.62655 10.1884 5.62655 10.511C5.62655 10.8336 5.7072 11.128 5.8685 11.3944C6.02979 11.6608 6.24566 11.8746 6.51613 12.0359C6.78661 12.1972 7.08562 12.2779 7.41316 12.2779ZM7.41316 11.3687C7.16998 11.3687 6.96403 11.2857 6.7953 11.1195C6.62656 10.9533 6.54219 10.7505 6.54219 10.511C6.54219 10.2666 6.62656 10.0625 6.7953 9.89881C6.96403 9.73508 7.16998 9.65321 7.41316 9.65321C7.6613 9.65321 7.86849 9.73508 8.03475 9.89881C8.201 10.0625 8.28413 10.2666 8.28413 10.511C8.28413 10.7505 8.201 10.9533 8.03475 11.1195C7.86849 11.2857 7.6613 11.3687 7.41316 11.3687ZM3.06576 9.91714C2.91687 9.91714 2.78536 9.97457 2.67122 10.0894C2.55707 10.2043 2.5 10.3448 2.5 10.511C2.5 10.6772 2.55707 10.8165 2.67122 10.9289C2.78536 11.0413 2.91687 11.0975 3.06576 11.0975H6.13276V9.91714H3.06576ZM16.897 9.91714H8.59679V11.0975H16.897C17.0658 11.0975 17.2085 11.0413 17.3251 10.9289C17.4417 10.8165 17.5 10.6772 17.5 10.511C17.5 10.3448 17.4417 10.2043 17.3251 10.0894C17.2085 9.97457 17.0658 9.91714 16.897 9.91714ZM12.6687 7.79104C12.9963 7.79104 13.2953 7.71162 13.5658 7.55277C13.8362 7.39392 14.0521 7.18131 14.2134 6.91494C14.3747 6.64857 14.4554 6.35409 14.4554 6.03151C14.4554 5.70893 14.3747 5.41445 14.2134 5.14808C14.0521 4.88171 13.8362 4.66787 13.5658 4.50658C13.2953 4.34529 12.9963 4.26465 12.6687 4.26465C12.3412 4.26465 12.0422 4.34529 11.7717 4.50658C11.5013 4.66787 11.2842 4.88171 11.1204 5.14808C10.9566 5.41445 10.8747 5.70893 10.8747 6.03151C10.8747 6.35409 10.9566 6.64857 11.1204 6.91494C11.2842 7.18131 11.5013 7.39392 11.7717 7.55277C12.0422 7.71162 12.3412 7.79104 12.6687 7.79104ZM12.6687 6.88928C12.4256 6.88928 12.2196 6.80497 12.0509 6.63635C11.8822 6.46773 11.7978 6.26367 11.7978 6.02418C11.7978 5.78469 11.8822 5.58185 12.0509 5.41567C12.2196 5.24949 12.4256 5.16641 12.6687 5.16641C12.9119 5.16641 13.1179 5.24949 13.2866 5.41567C13.4553 5.58185 13.5397 5.78469 13.5397 6.02418C13.5397 6.26367 13.4553 6.46773 13.2866 6.63635C13.1179 6.80497 12.9119 6.88928 12.6687 6.88928ZM11.5223 5.445H3.09553C2.93176 5.445 2.79156 5.50243 2.67494 5.61729C2.55831 5.73214 2.5 5.87022 2.5 6.03151C2.5 6.19769 2.55831 6.33821 2.67494 6.45306C2.79156 6.56792 2.93176 6.62535 3.09553 6.62535H11.5223V5.445ZM16.9268 5.445H13.8598V6.62535H16.9268C17.0807 6.62535 17.2147 6.56792 17.3288 6.45306C17.4429 6.33821 17.5 6.19769 17.5 6.03151C17.5 5.87022 17.4429 5.73214 17.3288 5.61729C17.2147 5.50243 17.0807 5.445 16.9268 5.445Z" fill="#101010"/>
</g>
<defs>
<clipPath id="clip0_98_736">
<rect width="15" height="12.5" fill="white" transform="translate(2.5 4.25)"/>
</clipPath>
</defs>
</svg>
